<svg width="65" height="65" viewBox="0 0 65 65" fill="none" xmlns="http://www.w3.org/2000/svg">
<rect width="65" height="65" fill="white"/>
<path d="M3.28467 21.5064L13.5893 11.2451L40.95 3.39744C44.1047 3.65311 47.892 3.02477 50.9687 3.38444C51.3717 3.43211 51.935 3.83511 51.935 4.24244V11.1368H60.7663C61.087 11.1368 61.6763 11.7174 61.6243 12.1031C61.4033 15.2231 61.9103 18.7201 61.6243 21.7968C61.5853 22.2344 61.2603 22.8758 60.7663 22.8758H51.935V60.8748C51.935 61.1608 51.4757 61.5594 51.2503 61.7284H40.8807C40.6597 61.5594 40.196 61.1608 40.196 60.8748V22.8758H19.799V27.2611L22.763 30.1644V27.3738C22.763 27.0704 23.3177 26.7801 23.6167 26.7454C24.8517 26.6024 28.4397 26.5938 29.6617 26.7454C30.1557 26.8061 30.524 27.2004 30.5197 27.7118V37.8561L34.2983 41.8168C34.684 42.2544 34.0513 43.2684 33.644 43.2684H4.02133C3.835 43.2684 3.419 42.7441 3.28033 42.5838V41.8991L17.8663 27.2568V22.8714H4.13833C3.85233 22.8714 3.45367 22.4121 3.28467 22.1868V21.5021V21.5064ZM46.5833 5.32577H42.3107L42.1417 5.49477V9.65477L46.5877 5.32577H46.5833ZM49.8853 5.32577L49.2527 5.43411L43.6193 11.1368H49.8853V5.32577ZM40.2003 5.66811L21.2853 11.1368H40.2003V5.66811ZM19.3483 13.0738H14.5037C13.91 13.4854 13.3727 14.0228 12.9653 14.6121V19.4524L19.3483 13.0738ZM29.0333 13.0738H22.7673V19.4524L29.0333 13.0738ZM38.7227 13.0738H32.4567V19.4524L38.7227 13.0738ZM48.5203 13.0738H42.3107L42.1417 13.2428V19.4524L48.5247 13.0738H48.5203ZM58.2053 13.0738H51.9393V19.4524L58.2053 13.0738ZM30.5153 20.8218V14.5558L24.2493 20.8218H30.5153ZM40.2003 20.8218V14.5558L33.9343 20.8218H40.2003ZM59.6873 20.8218V14.5558L53.4213 20.8218H59.6873ZM20.7177 20.8218V14.6684L14.5643 20.8218H20.7177ZM49.8853 20.8218V14.6684L43.732 20.8218H49.8853ZM11.0327 20.8218V16.4928L6.70367 20.8218H11.0327ZM48.5203 22.8758H42.1373V29.1418L48.5203 22.8758ZM49.8853 30.6238V24.3578L43.6193 30.6238H49.8853ZM28.5783 28.6868H24.7043V32.7298C24.7043 33.2584 23.6947 33.8348 23.231 33.4014L18.8327 29.1418L6.69933 41.3314H30.9703L28.5783 38.7661V28.6824V28.6868ZM48.5203 32.5608H42.1373V38.8268L48.5203 32.5608ZM49.8853 40.3088V34.0428L43.6193 40.3088H49.8853ZM48.5203 42.2458H42.3107L42.1417 42.4148V48.6244L48.5247 42.2458H48.5203ZM49.8853 49.9938V43.8404L43.732 49.9938H49.8853ZM48.5203 52.0434H42.1373V58.3094L48.5203 52.0434ZM49.8853 59.7914V53.5254L43.6193 59.7914H49.8853Z" fill="#F89F22"/>
<path d="M3.28467 47.827C3.52733 47.4457 3.71367 47.1207 4.24667 47.1337L33.8217 47.2073C34.216 47.398 34.3633 47.671 34.4023 48.1043C34.7793 52.143 34.099 56.7753 34.4023 60.879L33.826 61.7283H3.28467V47.827ZM32.4523 49.0793H5.22167V59.7913H14.9067V51.987C14.9067 51.441 15.4743 51.0597 15.9857 51.012C17.862 50.843 20.0027 51.1463 21.9093 51.025C22.2473 51.0207 22.7717 51.5883 22.7717 51.8743V59.7913H32.4567V49.0793H32.4523ZM20.7177 52.9533H16.9563V59.7913H20.7177V52.9533Z" fill="#F89F22"/>
<path d="M55.8133 24.8127H53.8763V26.7497H55.8133V24.8127Z" fill="#F89F22"/>
<path d="M55.8133 28.6868H53.8763V30.6238H55.8133V28.6868Z" fill="#F89F22"/>
<path d="M55.8133 32.5605H53.8763V34.4975H55.8133V32.5605Z" fill="#F89F22"/>
</svg>
