<svg width="70" height="70" viewBox="0 0 70 70" fill="none" xmlns="http://www.w3.org/2000/svg">
<rect width="70" height="70" fill="white"/>
<path d="M18.9234 10.4114C19.2127 8.25069 20.986 6.91603 23.0907 6.84136C36.092 6.37936 49.5507 7.41069 62.6127 6.93936C64.7547 7.13069 66.0147 9.04402 66.0754 11.0787L66.066 59.752C65.8607 61.8054 64.3814 63.4434 62.272 63.56H22.5494C20.3514 63.3267 19.082 61.5114 18.9187 59.4207C18.4007 52.85 19.3527 45.6447 18.886 39.0087C14.56 30.6274 8.74536 22.5447 4.53603 14.154C4.19536 13.4774 3.48136 12.6327 4.33536 12.0354L14.28 6.42603L15.05 6.72469L18.928 13.3607C19.0167 12.4274 18.8067 11.3074 18.928 10.402L18.9234 10.4114ZM13.7994 8.82936L6.32336 13.1974L8.10603 16.5107L15.8107 12.1894L14.1074 8.97403L13.804 8.82936H13.7994ZM20.9487 42.7747V60.2654C20.9487 60.816 22.5867 61.88 23.2214 61.7074H61.7634C62.706 61.6794 63.5414 61.1987 63.9614 60.3587V10.1547C63.6907 9.37536 63.098 8.90403 62.2674 8.80603L22.2927 8.88536C21.574 9.20736 21.042 9.77203 20.944 10.5794C20.706 12.544 21.0654 15.078 21.028 17.094L34.3887 40.2314L36.0034 54.348C35.9427 55.118 35.2007 55.5147 34.51 55.146C31.7334 52.9574 28.812 50.9367 26.0307 48.7527C25.2747 48.16 23.982 47.3107 23.394 46.6574C22.442 45.6074 21.952 43.82 20.9487 42.7654V42.7747ZM17.0614 13.8787L9.73936 17.962L9.3147 18.494L23.9027 43.7874L31.5794 39.158L17.0614 13.8787ZM32.606 41.0854C32.508 40.978 31.668 41.4634 31.4814 41.5614C29.8434 42.4247 26.6514 44.1047 25.2887 45.1687C25.102 45.3134 24.9387 45.3367 25.0087 45.6447L33.796 52.066L32.6154 41.0854H32.606Z" fill="#F89F22"/>
<path d="M59.0939 23.5527C60.1673 24.7474 57.9739 25.144 57.2039 25.2047C48.6733 25.872 39.2839 24.6867 30.6599 25.2047C28.5459 25.1954 27.9066 23.4267 30.3193 23.1654H57.8806C58.1933 23.1607 58.9073 23.3427 59.0939 23.5527Z" fill="#F89F22"/>
<path d="M26.2314 15.5214C25.7414 15.0034 26.1987 14.2474 26.8194 14.0887L57.876 14.0374C59.626 14.3127 59.1967 15.9647 57.54 15.9087H27.4447C27.1227 15.9087 26.4367 15.736 26.2314 15.5214Z" fill="#F89F22"/>
<path d="M47.1426 54.9361C47.432 55.2067 50.3486 52.1034 52.276 53.1021C53.158 53.5594 53.088 54.7681 53.06 55.6127C54.138 55.2534 55.146 54.5487 56.3453 54.5954C57.092 54.6234 58.1746 54.9361 58.1233 55.8554C58.0486 57.1621 56.4106 56.5274 55.5473 56.6721C54.3666 56.8681 51.2306 59.4021 51.0346 56.3594C51.0113 56.0047 51.492 54.8381 50.9413 54.9408C49.5086 55.2161 46.69 58.9074 45.0333 56.6301C43.9226 55.1087 46.48 53.3774 46.382 51.9027C45.8546 52.3227 45.2853 52.9061 44.8746 53.4381C44.5013 53.9141 43.7453 55.3981 43.512 55.6267C43.2926 55.8414 43.0173 55.7947 42.7466 55.7947C42.8913 56.2754 43.6613 55.7341 43.806 56.3454C44.548 57.9321 41.2346 58.3427 41.2766 56.2474C41.3046 54.7681 43.4933 51.9447 44.5993 50.9787C48.3933 47.6701 49.518 52.3647 47.138 54.9501L47.1426 54.9361Z" fill="#F89F22"/>
<path d="M39.1533 32.3353C44.968 32.6853 51.6413 31.7286 57.3626 32.2979C57.9413 32.3539 59.052 32.5873 58.9773 33.3853C58.8046 34.0293 58.1233 34.2766 57.5306 34.3233C51.7533 33.8473 44.9353 34.9626 39.2793 34.3233C37.4593 34.1179 37.31 32.6853 39.1486 32.3353H39.1533Z" fill="#F89F22"/>
<path d="M58.7581 43.0688C58.6041 43.2414 57.9647 43.4281 57.7081 43.4561C53.8767 43.8808 49.2801 43.1248 45.3647 43.4561C43.8107 43.2741 43.8107 41.7714 45.3647 41.5894C49.3127 41.9394 54.0214 41.1368 57.8761 41.5894C58.6554 41.6828 59.4207 42.3314 58.7581 43.0688Z" fill="#F89F22"/>
</svg>
