<svg width="76" height="76" viewBox="0 0 76 76" fill="none" xmlns="http://www.w3.org/2000/svg">
<rect width="76" height="76" fill="white"/>
<path d="M55.9816 16.3148V11.3241C55.9816 10.9745 56.4781 10.5692 56.8176 10.559C59.66 10.7566 62.8621 9.88009 65.2637 11.8004C66.4747 12.7681 67.2448 14.2172 67.412 15.7726V56.7214C67.3715 59.0876 64.7368 61.935 62.3555 61.935H20.0944V71.1513C20.0944 71.202 19.8715 71.5262 19.8005 71.587C19.6435 71.7137 19.456 71.7593 19.2635 71.7745C17.9259 71.9062 14.5312 71.9012 13.2493 71.663C10.7363 71.202 8.82615 69.0132 8.59308 66.4849V21.3105C8.64375 19.0812 11.1923 16.3198 13.4317 16.3198H29.1181C29.0827 16.0209 29.1739 15.6358 29.1029 15.3521C29.0573 15.1748 28.652 14.6478 28.5355 14.3894C27.6032 12.2817 28.2872 10.0726 29.9795 8.61849C29.7363 6.57662 30.3645 4.22569 32.7915 4.14969C35.2184 4.07369 36.0696 6.50062 35.8315 8.61849C37.5744 10.1537 38.1925 12.4844 37.1387 14.6225C36.8651 15.1798 36.3128 15.6206 36.7232 16.3198H55.9765L55.9816 16.3148ZM34.0683 7.79262V6.66276C34.0683 6.35876 33.4197 5.91289 33.1259 5.85716C31.9859 5.62916 31.4792 6.82996 31.6667 7.79262C32.4976 7.65076 33.2373 7.61022 34.0683 7.79262ZM35.4363 14.1868C37.0981 11.6028 34.5851 8.45636 31.6869 9.59636C29.9187 10.2956 29.2296 12.6262 30.3544 14.1614L35.4363 14.1817V14.1868ZM65.7349 52.0956V15.8436C65.7349 14.1513 63.6525 12.2361 61.9856 12.2361H57.7296V50.5654H62.5683C63.0091 50.5654 64.2251 51.0924 64.6355 51.3356L65.7349 52.0956ZM34.9448 15.879H30.9067L30.7952 15.9905V18.3566H34.9448V15.879ZM29.1181 17.9918H13.6496C12.1955 17.9918 10.2651 19.9222 10.2651 21.3814V61.859L11.8155 60.8254C12.464 60.5214 13.148 60.334 13.8624 60.2529C30.1061 60.187 46.3752 60.3948 62.6037 60.1465C66.0339 59.3612 66.88 54.7454 63.8603 52.8353C62.0109 51.6649 58.9355 52.5212 56.8176 52.2324C56.468 52.1868 55.9765 51.8473 55.9765 51.4724V17.9918H36.6117C36.4699 18.615 37.2197 18.3212 37.3768 18.8633L39.3123 24.6849H49.6787C50.2664 24.7761 50.4032 25.298 50.4437 25.8198C50.5856 27.6286 50.5704 30.6382 50.4437 32.4572C50.4235 32.7713 50.3829 33.2577 50.1448 33.4705C50.1093 33.5009 49.8408 33.658 49.8205 33.658H42.4688L42.3877 33.81L43.2288 36.5308L41.2629 41.491V44.5158H46.1776C46.2131 44.5158 46.5981 44.7894 46.6437 44.8553C46.7451 45.0022 46.7856 45.2505 46.8008 45.4278C47.0035 47.7737 46.6437 50.4134 46.8008 52.7897C46.7552 53.1748 46.5779 53.4636 46.2029 53.5801H19.5877C19.2128 53.4636 19.0355 53.1748 18.9899 52.7897C18.7264 50.4641 19.1875 47.6572 18.9899 45.2809C18.9544 45.0174 19.3952 44.5158 19.608 44.5158H24.5227V41.567L22.5619 36.6068C22.5467 35.5884 23.2104 34.6612 23.3573 33.663H16.8416C16.7099 33.663 16.2336 33.1766 16.2944 32.974C16.4616 30.5572 16.0765 27.8465 16.2944 25.4652C16.3299 25.0598 16.5832 24.7558 16.9885 24.7001L26.4075 24.69L28.348 18.9444C28.5 18.6454 28.7584 18.4073 29.108 18.4326V17.9969L29.1181 17.9918ZM31.6667 20.1046H29.7008L24.3251 36.2622C24.4973 37.1793 24.9787 38.0305 25.2928 38.902L31.6616 20.0996L31.6667 20.1046ZM36.0341 20.1046H34.0683L40.4016 38.907C40.4928 38.902 40.5232 38.8057 40.5587 38.7398C40.6803 38.5118 41.4909 36.47 41.4757 36.3382L36.0291 20.1046H36.0341ZM33.7795 24.695C33.7947 24.5937 33.7693 24.4974 33.7491 24.4012C33.6325 23.8692 33.2069 22.5974 32.984 22.106C32.9485 22.035 32.9384 21.9337 32.8371 21.9286L31.9605 24.7001H33.7795V24.695ZM25.8451 26.3721H17.9816V31.9809H24.0211L25.84 26.3721H25.8451ZM29.4829 31.9809H36.328L34.3267 26.367L31.3373 26.443L29.4829 31.9809ZM48.7008 26.3721H39.9659L41.7848 31.9809H48.7008V26.3721ZM39.5301 44.5158V41.4201L36.8803 33.7238L28.9003 33.6934L26.2099 41.491V44.5158H39.5301ZM20.6771 46.1929V51.8422L20.7885 51.9537H27.3397L27.4512 51.8422V46.3044L27.3397 46.1929H20.6771ZM36.3989 46.1929H29.1181V51.9486H36.3989V46.1929ZM38.1469 51.9486H45.0275L45.1389 51.8372V46.2993L45.0275 46.1878H38.1469V51.9436V51.9486ZM18.4173 61.93H13.8675C11.8712 61.93 10.1789 64.3062 10.26 66.1961C10.3411 68.086 12.0992 70.0924 14.0093 70.0924H18.4123V61.93H18.4173Z" fill="#F89F22"/>
<path d="M9.1251 6.57157C9.19096 6.49557 9.37336 6.43477 9.46456 6.36384L24.0667 6.32837C25.1003 6.45504 25.0547 7.86357 24.0667 8.00544H9.65203C8.98323 7.9041 8.6843 7.07317 9.13016 6.5665L9.1251 6.57157Z" fill="#F89F22"/>
<path d="M41.7645 6.34845L56.3109 6.33325C57.3293 6.45485 57.3293 7.88872 56.3109 8.01032H41.9672C41.0197 7.91912 40.9032 6.68792 41.7645 6.34845Z" fill="#F89F22"/>
<path d="M16.6541 9.99152L24.1325 9.97632C25.0901 10.1993 25.0597 11.5318 24.0667 11.6483H16.644C15.7168 11.4001 15.7421 10.2297 16.6541 9.98645V9.99152Z" fill="#F89F22"/>
<path d="M41.8405 9.99158L49.3138 9.98145C50.2309 10.1132 50.2512 11.4153 49.3898 11.6484H41.8253C40.964 11.3798 40.9437 10.255 41.8354 9.99158H41.8405Z" fill="#F89F22"/>
<path d="M19.0507 55.9005L45.9699 55.8853C46.8464 56.0423 46.9427 57.2431 46.0813 57.5269L19.0861 57.5117C18.2957 57.2837 18.3109 56.1791 19.0507 55.9005Z" fill="#F89F22"/>
<path d="M32.7408 10.9388C33.8605 10.7767 34.0531 12.3676 33.212 12.5804C31.8288 12.9351 31.6616 11.0908 32.7408 10.9388Z" fill="#F89F22"/>
</svg>
