<svg width="64" height="68" viewBox="0 0 64 68" fill="none" xmlns="http://www.w3.org/2000/svg">
<path d="M62.9239 15.0114L27.5196 8.94621C27.0437 8.83594 26.4727 9.27704 26.4727 9.82841C26.3775 10.3798 26.7582 11.0414 27.2341 11.0414L62.6384 17.1066C63.1142 17.2169 63.6853 16.7758 63.6853 16.2244C63.8756 15.673 63.4949 15.1216 62.9239 15.0114Z" fill="#1B4583"/>
<path d="M30.9457 22.1793C30.9457 22.7307 30.565 23.1718 30.0892 23.2821L1.06148 28.2445C0.585612 28.3547 0.109748 27.9136 0.0145751 27.3623C-0.0805977 26.7006 0.300094 26.1492 0.87113 26.1492L29.8988 21.1868C30.4699 20.9663 30.9457 21.5177 30.9457 22.1793Z" fill="#1B4583"/>
<path d="M40.5581 55.0414V62.7607H46.8395V55.0414C46.8395 53.0565 45.4119 51.4023 43.6988 51.4023C41.9857 51.4023 40.5581 53.0565 40.5581 55.0414Z" fill="#1B4583"/>
<path d="M9.24609 35.9636V62.7605H30.9455V35.9636H9.24609ZM19.1441 56.144H12.1013V50.52H19.1441V56.144ZM19.1441 48.3145H12.1013V42.6904H19.1441V48.3145ZM28.0903 56.144H21.0475V50.52H28.0903V56.144ZM28.0903 48.3145H21.0475V42.6904H28.0903V48.3145Z" fill="#1B4583"/>
<path d="M2.39404 64.9662V67.1717H61.4012V64.9662C57.2136 64.9662 9.15131 64.9662 2.39404 64.9662Z" fill="#1B4583"/>
<path d="M57.4037 22.7308V18.5403C42.5567 16.004 47.7912 16.8862 32.8491 14.3499V22.8411C41.5098 22.7308 18.0973 22.7308 57.4037 22.7308Z" fill="#1B4583"/>
<path d="M32.8491 24.9362V62.7606H38.6547V55.0413C38.6547 51.8433 40.9388 49.1967 43.6988 49.1967C46.4588 49.1967 48.743 51.8433 48.743 55.0413V62.7606H54.5485V24.9362H32.8491ZM42.3664 46.9912H35.7043V39.272H42.3664V46.9912ZM42.3664 35.9637H35.7043V28.2444H42.3664V35.9637ZM51.6933 46.9912H45.0312V39.272H51.6933V46.9912ZM51.6933 35.9637H45.0312V28.2444H51.6933V35.9637Z" fill="#1B4583"/>
<path d="M30.9457 25.3773L27.805 25.8184L6.39111 29.5678V33.7582H8.29457H30.9457V25.3773Z" fill="#1B4583"/>
<path d="M22.6659 14.1292L19.9059 15.6731C19.3349 16.0039 18.7638 15.7834 18.4783 15.1217L17.0507 12.034C16.7652 11.4826 16.9555 10.7107 17.5266 10.3799C18.0024 10.0491 18.6687 10.2696 18.9542 10.821L19.2397 11.4826C19.3349 10.821 19.2397 10.0491 19.0494 9.27713C18.6687 7.73328 17.8121 6.40997 16.4797 5.52777C16.0038 5.19694 15.8135 4.42502 16.099 3.87364C16.3845 3.32226 17.0507 3.10171 17.5266 3.43254C19.3349 4.53529 20.5721 6.40997 21.048 8.61548C21.3335 9.71823 21.3335 10.821 21.2383 11.9237L21.7142 11.5929C22.1901 11.2621 22.8563 11.5929 23.1418 12.1443C23.4273 13.1368 23.1418 13.7984 22.6659 14.1292Z" fill="#1B4583"/>
<path d="M16.765 17.3273C17.0506 17.8787 16.8602 18.6506 16.3843 18.9814C13.7195 20.7458 10.4836 20.415 8.19949 18.3198V18.8712C8.10432 20.415 6.01051 20.1945 6.10569 18.6506L6.20086 15.2321C6.20086 14.5704 6.58155 14.019 7.34293 14.019L10.2933 14.1293C11.6257 14.2396 11.6257 16.5554 10.1981 16.5554H9.72225C11.245 17.7684 13.434 18.0992 15.3374 16.8862C15.8133 16.5554 16.4795 16.7759 16.765 17.3273Z" fill="#1B4583"/>
<path d="M6.39111 10.38C6.39111 6.85118 8.29457 3.76347 10.9594 2.55044L10.5787 2.21961C10.1029 1.88878 9.91251 1.11686 10.2932 0.56548C10.5787 0.0141033 11.2449 -0.206448 11.7208 0.234654L14.1953 2.10934C14.4808 2.32989 14.8615 2.88126 14.4808 3.76347L12.8629 6.63063C12.5773 7.182 11.9111 7.40255 11.4353 6.96145C10.9594 6.63063 10.8642 5.8587 11.1498 5.30732L11.4353 4.86622C9.62699 5.8587 8.38974 7.95393 8.38974 10.38C8.38974 11.0416 7.91388 11.593 7.34284 11.593C6.86698 11.593 6.39111 11.0416 6.39111 10.38Z" fill="#1B4583"/>
</svg>
