<svg width="72" height="72" viewBox="0 0 72 72" fill="none" xmlns="http://www.w3.org/2000/svg">
<rect width="72" height="72" fill="white"/>
<path d="M13.8 56.7551V44.2031C13.8 44.1503 13.1376 44.1455 12.792 43.8095C6.05762 37.2287 2.09762 30.0095 6.43682 20.4383C16.2672 -1.20971 59.9232 2.57748 61.584 26.5679C62.9088 45.7055 38.376 54.1295 22.9872 49.1231C21.6336 49.4447 16.56 56.2991 15.0192 56.9615C14.592 57.1439 14.2272 56.6543 13.8 56.7503V56.7551ZM15.4176 53.5151C16.1232 53.6927 16.2288 53.2223 16.6368 52.9103C17.856 51.9743 21.7584 47.2991 22.584 47.1023C34.8672 51.3407 54.6048 46.9727 59.0304 33.3647C63.864 18.4943 47.928 8.43828 35.0736 7.74708C13.4928 6.58548 -5.20798 27.0239 15.4176 43.5935V53.5151Z" fill="#F89F22"/>
<path d="M59.9472 65.6639C58.6992 66.8927 53.4528 60.2063 52.2672 59.3903C45.3888 61.2095 37.776 60.8015 31.3344 57.6431C29.4384 56.7119 24.4368 53.5583 24.7248 51.2927C24.7488 50.9087 25.416 51.0479 25.68 51.1487C26.4384 51.4367 29.6688 54.4799 31.2 55.3487C35.2656 57.6527 40.4832 58.9727 45.192 58.7999C47.8704 58.6991 50.4864 57.5471 53.1792 57.6431L58.3296 62.4287V54.5327C63.7632 50.7071 66.9936 44.9039 64.92 38.2223C64.4544 36.7247 62.1936 33.5375 62.1312 33.0815C61.7184 30.1535 64.5744 33.4559 65.28 34.6271C69.7824 42.1055 66.5904 50.9087 59.9472 55.7519V65.6735V65.6639Z" fill="#F89F22"/>
<path d="M16.8384 24.3601C16.3488 24.2209 16.0032 23.0929 16.2336 22.7473C16.2864 22.6705 17.76 22.3633 18.048 22.3345C25.2528 21.6625 40.8816 21.5953 48.0336 22.3105C49.0416 22.4113 49.608 22.3921 50.232 23.3521L49.6272 24.3601H16.8384Z" fill="#F89F22"/>
<path d="M17.2416 34.08C15.5808 33.8016 16.2912 32.0544 16.8384 32.0544H36.2688C37.032 32.0544 37.032 34.08 36.2688 34.08H17.2416Z" fill="#F89F22"/>
</svg>
