<svg width="89" height="89" viewBox="0 0 89 89" fill="none" xmlns="http://www.w3.org/2000/svg">
<rect width="89" height="89" fill="white"/>
<path d="M32.6096 58.0518C32.9122 58.2714 33.2742 58.2714 33.6302 58.301C37.4394 58.6214 41.7885 57.9332 45.5799 58.2832C48.0185 58.5087 46.7666 59.3928 47.4192 60.5498L57.5356 70.7729C57.8619 70.9687 58.0992 71.3188 58.4908 71.3959C60.1403 71.7104 63.1663 70.9984 64.6615 71.4849C65.4091 71.7282 65.593 72.6419 65.3023 73.3124C64.8276 74.4041 60.6506 73.7811 59.5588 73.9413C59.7309 75.2822 58.8943 76.7537 57.5712 77.1394C57.0846 77.2818 56.3311 77.1868 56.0344 77.3648C55.8327 77.4835 55.6844 78.0828 55.453 78.3498C54.5096 79.4593 52.7414 79.2872 52.5456 79.4534C52.51 79.483 52.4092 80.0052 52.2549 80.2366C51.7743 80.9486 50.914 81.4826 50.0477 81.5656C49.4247 81.625 48.7424 81.3046 48.3508 81.4114C48.0126 81.5004 47.5854 82.2124 47.2234 82.4497C46.0842 83.1973 44.1084 83.1617 43.3371 81.9038L44.4882 80.1001C44.7255 79.9221 45.212 80.9189 45.9359 80.3849C46.9802 79.6136 45.4197 78.9906 45.307 78.504C45.1764 77.9463 45.746 76.0061 45.2773 75.122C46.6242 75.9349 48.066 78.3201 49.3238 79.0143C50.1842 79.489 50.7063 78.4091 50.1782 77.7505L44.2093 71.7934C43.616 70.411 44.7492 69.6159 45.9774 70.2211C47.1997 71.0933 51.9464 76.7834 52.8957 76.991C53.3229 77.086 53.9459 76.5579 53.8154 76.0951C53.5187 75.033 49.128 71.6451 48.3211 70.4228C47.7752 69.2362 48.9856 68.1741 50.0892 68.8505L56.3489 74.9322C56.9363 74.9915 57.3576 74.4338 57.1914 73.8879C53.7976 70.3635 50.3147 66.934 46.8437 63.4808C46.019 62.662 45.3663 61.6 44.2568 60.9829C40.8392 60.4845 37.0656 61.1431 33.648 60.8346C28.9369 60.4074 28.664 54.5393 33.0546 53.5959C37.4631 53.9994 42.8328 53.05 47.1226 53.6137C50.1308 54.0053 51.8692 57.678 53.8806 58.2002C56.076 58.7757 59.8199 57.9332 62.1873 58.301C63.7834 58.5502 63.9317 60.5438 62.1873 60.8227C60.6684 61.066 56.0285 60.971 54.4265 60.7812C50.641 60.3243 49.2526 56.2718 46.3512 55.9455C42.3522 55.4946 37.5402 56.2718 33.4522 55.9574C32.396 56.1057 32.0875 57.1856 32.6037 58.0518H32.6096Z" fill="#F89F22"/>
<path d="M59.3155 6.30113C60.7514 6.07566 61.8846 6.98939 62.9823 7.00719C64.786 7.03686 65.8837 5.32213 68.1562 6.95379C68.9809 7.54713 69.4021 8.76939 70.1319 9.27966C71.2355 10.0451 72.7664 9.77806 73.7276 11.1605C74.7422 12.6142 74.1191 13.9611 74.4751 15.3079C74.8667 16.8031 76.6883 17.0286 76.1009 19.7698C75.8576 20.8971 74.665 21.7159 74.4751 22.4457C74.131 23.7867 74.6591 25.3293 73.6148 26.6762C72.6299 27.9459 71.2296 27.7442 70.1319 28.474C69.0343 29.2038 68.975 30.6515 67.2365 31.2508C65.3378 31.9035 64.5072 30.6931 63.0001 30.7346C61.1904 30.7821 60.2767 32.2595 58.1229 30.8829C57.1201 30.2421 56.7997 29.008 56.0284 28.474C54.9189 27.7086 53.394 27.9756 52.4328 26.5931C51.3826 25.0979 52.0471 23.8401 51.6437 22.4873C51.4301 21.7634 50.279 20.7844 50.0654 19.9597C49.9171 19.396 49.8993 18.5119 50.018 17.9423C50.2256 16.9218 51.4123 16.0496 51.6437 15.2664C52.1836 13.4567 51.0266 11.8547 53.2338 10.4011C54.0942 9.83146 55.4944 9.71873 56.1412 9.20253C57.1854 8.37186 57.4524 6.59779 59.3155 6.30706V6.30113ZM71.8526 12.5489C69.2953 11.92 67.9722 10.585 66.3168 8.68039C63.8782 9.55853 62.1694 9.39832 59.7249 8.69819C58.7756 9.34493 58.3602 10.5672 57.3931 11.2258C56.6455 11.7301 54.8773 12.0505 54.4739 12.4125C53.8924 12.9405 54.2009 14.9994 53.9873 15.8419C53.7559 16.7438 52.3023 18.1619 52.3023 18.8679C52.4922 19.8944 53.6669 20.7607 53.9517 21.7397C54.2662 22.8255 53.9043 24.0715 54.3255 25.181C55.2986 25.6972 56.4793 25.8633 57.399 26.5101C58.378 27.2043 58.9832 28.9368 60.0572 28.9546C60.959 28.9665 61.9143 28.3613 62.9823 28.3435C64.0503 28.3257 65.6879 29.1385 66.4651 28.9071C66.922 28.7707 68.0315 26.9254 68.8622 26.4033C69.6929 25.8811 71.7162 25.6319 71.8882 24.7301C72.0662 23.7807 71.8111 22.8077 72.1849 21.7041C72.4578 20.909 73.8344 19.4375 73.8344 18.8679C72.5231 16.7616 71.55 15.1774 71.8586 12.543L71.8526 12.5489Z" fill="#F89F22"/>
<path d="M32.0222 68.0375C32.1884 68.257 34.3422 68.1562 35.2678 69.5742C35.4873 69.9124 35.6653 70.7312 35.8136 70.8321C36.4426 71.2712 37.6708 70.9152 38.626 72.084C38.9049 72.4282 39.1719 73.3241 39.4033 73.4606C39.7 73.6326 40.1331 73.5021 40.4298 73.6089C41.9487 74.1429 43.1413 75.2406 43.1354 76.985C43.1294 78.2784 41.0053 81.3875 39.8602 81.9393C38.5252 82.5861 36.7096 82.4318 35.6831 81.2926C35.3746 80.9544 35.072 79.9872 34.7694 79.8092C33.8616 79.2693 32.936 79.7558 31.8858 78.4386C31.595 78.0767 31.3162 77.2223 31.1085 77.0621C30.794 76.8188 30.0998 76.896 29.554 76.6586C28.213 76.0831 27.9401 74.6057 27.6731 74.4336C27.3883 74.2438 26.3262 74.3209 25.638 73.9234C22.6713 72.1968 24.1309 69.1411 25.8219 67.1238C27.507 65.1064 30.0346 64.9106 31.6662 67.1119C31.9036 67.4323 31.8798 67.8654 32.0104 68.0434L32.0222 68.0375ZM28.7826 67.9307C27.9104 67.9544 25.1752 71.3186 27.0798 71.912C28.3792 72.3154 31.2568 67.8714 28.7826 67.9307ZM30.266 74.2912C31.512 75.5313 33.6361 72.0484 33.464 71.4017C33.2445 70.571 32.2299 70.3337 31.5772 70.9092C31.0254 71.4017 29.5955 73.6267 30.266 74.2912ZM33.7844 77.0265C34.888 78.1242 36.8282 75.377 37.03 74.576C37.2317 73.775 36.3951 73.1639 35.6416 73.3894C35.0245 73.5733 33.0131 76.2552 33.7904 77.0265H33.7844ZM39.3558 75.9288C38.8871 76.0534 36.7689 78.6878 37.3504 79.4236C38.27 81.1798 40.5425 77.8512 40.679 77.0977C40.8154 76.3442 40.0678 75.739 39.3558 75.9348V75.9288Z" fill="#F89F22"/>
<path d="M21.2176 12.3235L19.1943 12.5015L18.6722 13.9849L18.5713 53.5958C17.8 54.7765 16.198 54.0883 16.3167 52.7295V13.2017C16.6845 10.68 18.7256 9.57047 21.1227 9.96207L21.2176 12.3235Z" fill="#F89F22"/>
<path d="M40.323 14.9935C39.8246 15.4326 38.9999 15.7708 38.3353 15.842C36.5197 16.0378 27.5782 16.1268 26.1008 15.747C23.3655 15.0528 23.3181 11.7302 23.5613 9.48142C23.7571 7.68956 25.0565 6.49102 26.8128 6.27742C29.3641 5.96889 35.339 6.01636 37.9497 6.24776C39.9077 6.42576 41.302 7.73109 41.5393 9.70096C41.747 11.392 41.6758 13.795 40.3171 14.9935H40.323ZM27.0323 8.64482C25.3888 8.96522 25.5015 13.0652 26.8365 13.4508L37.7539 13.4983C39.3915 13.6822 39.2194 10.5257 39.0177 9.48736C38.8693 8.73976 38.009 8.65669 37.3682 8.59736C34.1049 8.29476 30.3491 8.80502 27.0323 8.64482Z" fill="#F89F22"/>
<path d="M24.4869 33.8793L53.4 33.8318C54.6519 33.8971 55.0673 35.1253 54.1951 36.0034L24.6293 36.1933C23.2646 36.0449 23.1103 34.1819 24.4869 33.8793Z" fill="#F89F22"/>
<path d="M24.2911 39.9492L53.6077 39.8958C55.2156 40.1034 54.9308 42.2276 53.4059 42.2572H24.8369C23.4782 42.2098 23.0391 40.5662 24.297 39.9492H24.2911Z" fill="#F89F22"/>
<path d="M24.4869 45.8172L53.4 45.7698C54.9249 45.7994 55.2097 47.9236 53.6018 48.1312H24.6293C23.2528 48.0304 23.1934 46.1139 24.4869 45.8172Z" fill="#F89F22"/>
<path d="M53.4949 30.3193H24.6411C23.5019 30.3193 22.7425 28.0113 25.0327 27.7739L50.3621 27.8748C51.2284 29.0437 52.421 29.459 53.4949 30.3193Z" fill="#F89F22"/>
<path d="M24.4453 23.6681C23.3951 23.4427 23.1696 21.5618 24.4453 21.3245L48.1786 21.3541L49.3831 23.6681H24.4393H24.4453Z" fill="#F89F22"/>
<path d="M61.9084 33.6421V53.1094C61.9084 53.1984 61.3685 53.9222 61.2379 53.9994C60.2767 54.5927 59.5825 53.768 59.4045 52.8542L59.4461 34.0218L61.9025 33.6421H61.9084Z" fill="#F89F22"/>
<path d="M22.0008 68.4648L21.5261 70.8263C21.3897 71.028 21.1464 70.9924 20.9387 71.0221C19.4732 71.206 15.9963 71.1467 14.4655 71.0221C11.8785 70.8026 12.7685 68.4708 13.884 68.4708H22.0008V68.4648Z" fill="#F89F22"/>
<path d="M43.9126 12.3176V9.77222C44.6958 10.3062 50.1189 9.67135 50.3681 9.96802L49.2941 12.3117H43.9126V12.3176Z" fill="#F89F22"/>
<path d="M67.5154 13.9552C73.9768 19.8648 64.8513 29.6904 58.4789 23.674C52.243 17.7941 61.1608 8.1346 67.5154 13.9552ZM62.2466 14.7147C60.9057 14.9401 59.4342 16.3048 59.0663 17.5923C57.7847 22.072 63.4333 25.0505 66.2931 21.4965C68.7614 18.4289 66.0855 14.0739 62.2466 14.7147Z" fill="#F89F22"/>
</svg>
