<svg width="63" height="63" viewBox="0 0 63 63" fill="none" xmlns="http://www.w3.org/2000/svg">
<rect width="63" height="63" fill="white"/>
<path d="M46.5738 50.5008C46.5192 50.4336 46.4982 50.4084 46.41 50.4042C46.2462 50.4 45.864 50.4504 45.6582 50.463C39.8286 50.8494 34.0032 51.576 28.1736 52.0086C27.5856 51.9288 27.258 51.6348 27.3294 51.0132C27.4092 50.2824 28.2618 50.2698 28.8372 50.316L28.875 50.169L2.17141 29.736C1.66741 29.2236 1.70521 28.6188 1.87741 27.972C2.55781 25.3974 7.87501 20.0928 10.4496 19.425C10.9578 19.2948 11.34 19.2234 11.8356 19.4796L41.6178 49.14L43.2306 48.993L50.5806 37.7538C50.904 37.275 51.5382 37.2372 51.9372 37.6362L54.8058 45.6078C55.902 45.3558 56.532 44.8056 57.7542 44.9736C60.2028 45.3096 61.5972 48.9888 60.4926 50.9838C60.0264 51.8238 57.4476 54.1548 56.595 54.8772C55.608 55.713 54.516 56.259 53.2182 56.4228L48.2328 56.7882C48.1152 56.8512 48.321 57.5778 47.8884 57.9264C47.6196 58.1448 46.3512 58.3044 45.9228 58.3842C39.3834 59.6022 32.7894 60.564 26.25 61.7778C23.016 62.0676 20.328 59.913 19.9752 56.6832L19.992 46.9182C20.328 46.1412 21.4158 46.1874 21.588 47.0526C21.7686 50.0892 21.3612 53.3778 21.588 56.385C21.7602 58.6488 23.6754 60.3414 25.9518 60.1566L46.5654 56.5656V50.5008H46.5738ZM7.74901 25.1412C8.63101 24.2466 9.53401 23.2596 10.2018 22.1928C10.3992 21.8778 10.7142 21.42 10.6932 21.0672C8.77801 22.0374 7.00561 23.6166 5.59021 25.221C5.28361 25.5696 3.31801 28.0686 3.53221 28.3416C5.14501 27.5898 6.51421 26.3928 7.74901 25.1412ZM12.4446 22.3608C12.3564 22.2768 12.2976 22.0122 12.1212 22.1256L10.2858 24.885C10.374 24.8892 10.4454 24.9312 10.5084 24.9942C19.1772 33.2892 28.1526 41.2734 36.8214 49.5684L39.4506 49.3668L12.4446 22.3608ZM34.6752 49.8036L9.25681 26.0946C9.20221 26.0442 9.16861 26.0652 9.10981 26.0946C8.89141 26.208 8.20261 27.0354 7.93381 27.2748C6.99721 28.1148 5.90521 28.9716 4.77541 29.5176L4.88881 29.736L31.2228 49.9842L31.9914 50.022L34.6752 49.8036ZM53.2602 46.1286L51.093 40.0302L45.3264 48.8502C46.3008 48.9594 47.9682 48.1026 48.2286 49.5138L51.1812 46.7334L53.2644 46.1328L53.2602 46.1286ZM48.1908 55.0956L52.92 54.7932C55.461 54.5244 56.8806 52.0128 58.7706 50.5764C59.0268 50.295 59.2872 49.7826 59.2872 49.4004C59.2872 49.0182 58.7412 47.418 58.4724 47.1198C57.5148 46.0488 56.532 46.851 55.5156 47.1744C54.3858 47.5356 53.2056 47.7582 52.0842 48.153L48.1866 51.7482V55.0914L48.1908 55.0956Z" fill="#F89F22"/>
<path d="M50.4672 10.5547C51.0762 10.5925 51.8826 10.3321 52.08 11.1091C52.0926 12.7261 52.08 14.3431 52.08 15.9601C52.08 16.6027 52.164 17.1739 52.0758 17.8585C51.8574 19.5595 50.9964 21.5335 49.0854 21.7393C48.5058 23.8771 47.187 25.7797 45.2886 26.9431C45.1458 28.6021 45.1458 29.9545 46.8174 30.7063C50.2278 32.2393 54.2976 33.1129 57.7584 34.6039C59.4804 35.3473 60.6522 36.7627 61.026 38.6107C61.1268 39.1021 61.3662 40.5133 61.1478 40.8997C60.8538 41.4205 60.0138 41.3995 59.7324 40.8619C59.493 40.3999 59.493 39.2113 59.3334 38.6149C58.9722 37.2499 58.0608 36.5107 56.8008 36.0025C54.4656 35.0617 51.954 34.3897 49.6188 33.4321C49.5054 33.4405 48.6864 34.6207 48.5184 34.8097C46.7292 36.8509 44.1714 38.2495 41.4288 38.4091L41.3994 42.5293C41.265 43.3231 39.942 43.3273 39.8202 42.5587L39.7824 38.4805L37.17 37.8967C37.3506 38.4847 38.2242 39.4969 38.1486 40.0891C38.0604 40.7947 37.2246 41.0677 36.729 40.5595L26.2248 20.5843C25.767 20.4835 25.2882 20.5843 24.8388 20.6725C23.6418 20.9119 20.9286 22.0459 20.2986 23.1127C20.1054 23.4403 20.1054 23.8771 19.7022 24.0577C18.9042 24.4189 18.4338 23.6293 18.6018 22.8859C19.0176 21.0757 22.4994 19.5763 24.1332 19.1605C25.1916 18.8917 26.3424 18.6313 27.321 19.2697C29.2488 22.6801 31.0464 26.1913 32.8734 29.6647C33.1002 30.0931 33.3186 30.5341 33.5034 30.9835C35.6748 30.6475 36.2796 28.9591 35.9562 26.9473C34.1124 25.7671 32.7768 23.9191 32.2098 21.8023C27.7032 20.6179 29.1144 14.7253 28.8666 11.2519C28.9884 10.4287 29.6268 10.6177 30.2316 10.4875C30.261 7.47608 31.8486 4.69568 34.314 3.03248C40.74 -1.31452 50.253 2.44868 50.4672 10.5589V10.5547ZM36.5106 7.94228V3.71708C33.8604 4.83008 31.8486 7.55588 31.9158 10.4833L32.1384 10.5547H48.7788C48.8628 7.53068 46.851 4.94348 44.226 3.67508L44.0748 3.75488V8.01788C44.0748 8.07248 43.8522 8.33708 43.7808 8.38328C43.2474 8.72768 42.5376 8.45468 42.4578 7.79948V3.05768C41.055 2.76788 39.6102 2.76368 38.2074 3.06608C38.073 3.20048 38.199 5.49368 38.199 5.88848C38.199 6.01868 38.1402 6.13628 38.136 6.25388C38.1276 6.84188 38.43 8.04308 37.779 8.41268C37.338 8.66468 36.6072 8.42528 36.5022 7.94648L36.5106 7.94228ZM50.4672 12.1717H30.4878V15.3679L30.597 15.4771H50.4672V12.1675V12.1717ZM50.4672 17.0941H30.5592C30.7272 18.1189 30.975 19.4209 31.9536 19.9627C31.857 19.3999 32.0964 18.8035 32.7264 18.7825C33.7764 18.7489 33.5496 19.9963 33.663 20.7145C34.9188 28.6525 46.5864 28.6483 47.67 20.2945C47.7288 19.8577 47.5482 19.4923 47.859 19.0891C48.4428 18.3247 49.6398 19.0723 49.287 19.9669C50.19 19.4209 50.4084 18.0853 50.463 17.0983L50.4672 17.0941ZM43.638 27.8251C42.9576 27.9259 42.3108 28.2115 41.6178 28.2661C40.2906 28.3711 38.8584 28.2367 37.6152 27.7537V29.0389C37.6152 29.5681 37.044 30.6433 36.6996 31.0591C36.0108 31.8865 35.3766 32.0083 34.4778 32.4409C34.4022 32.4745 34.356 32.4157 34.3938 32.5543L35.8596 35.3557C39.2868 37.6867 44.058 37.1281 46.9098 34.1503C47.0652 33.9907 47.8464 33.0667 47.8968 32.9323C47.9472 32.8105 47.7372 32.7727 47.6532 32.7391C46.2588 32.1889 45.171 32.0671 44.268 30.6853C44.1084 30.4375 43.638 29.4253 43.638 29.1859V27.8251Z" fill="#F89F22"/>
</svg>
