<svg width="61" height="71" viewBox="0 0 61 71" fill="none" xmlns="http://www.w3.org/2000/svg">
<path d="M59.8039 31.966H57.4118V25.0366H59.8039C60.4644 25.0366 61 24.416 61 23.6507C61 22.8855 60.4644 22.2649 59.8039 22.2649H33.4902V1.47667C33.4902 0.350646 32.389 -0.304874 31.5988 0.348845L25.2126 5.63431H10.6846C10.0241 5.63431 9.48849 6.25491 9.48849 7.02019V18.6481L6.48119 21.137C6.16698 21.3973 5.98039 21.8174 5.98039 22.2649V26.4225H1.19608C0.535604 26.4225 0 27.0431 0 27.8084V49.9824C0 50.7477 0.535604 51.3683 1.19608 51.3683H5.98039V69.3848C5.98039 70.15 6.516 70.7706 7.17647 70.7706H59.8039C60.4644 70.7706 61 70.15 61 69.3848V33.3519C61 32.5866 60.4644 31.966 59.8039 31.966ZM55.0196 31.966H51.4314V25.0366H55.0196V31.966ZM45.451 31.966V25.0366H49.0392V31.966H45.451ZM39.4706 31.966V25.0366H43.0588V31.966H39.4706ZM37.0784 25.0366V31.966H33.4902C33.4902 28.7384 33.4902 28.0301 33.4902 25.0366H37.0784ZM11.8806 8.40607H21.8637L11.8806 16.6684V8.40607ZM2.39216 29.1943H31.098V48.5966H2.39216V29.1943ZM8.37255 51.3683H31.098V67.9989H25.1176V55.526C25.1176 54.7607 24.582 54.1401 23.9216 54.1401H15.549C14.8885 54.1401 14.3529 54.7607 14.3529 55.526V67.9989H8.37255V51.3683ZM58.6078 67.9989H33.4902C33.4902 66.7487 33.4902 34.834 33.4902 34.7378H58.6078V67.9989Z" fill="#1B4583"/>
<path d="M55.0196 43.0531H49.0392H43.0588H37.0784C36.4179 43.0531 35.8823 43.6737 35.8823 44.439V58.2978C35.8823 59.0631 36.4179 59.6837 37.0784 59.6837H43.0588H49.0392H55.0196C55.6801 59.6837 56.2157 59.0631 56.2157 58.2978V51.3684V44.439C56.2157 43.6737 55.6801 43.0531 55.0196 43.0531ZM53.8235 49.9825H50.2353V45.8249H53.8235V49.9825ZM47.8431 49.9825H44.2549V45.8249H47.8431V49.9825ZM38.2745 45.8249H41.8627V49.9825H38.2745V45.8249ZM38.2745 52.7543H41.8627V56.9119H38.2745V52.7543ZM44.2549 52.7543H47.8431V56.9119H44.2549V52.7543ZM53.8235 56.9119H50.2353V52.7543H53.8235V56.9119Z" fill="#1B4583"/>
<path d="M27.5097 45.8249C28.1701 45.8249 28.7057 45.2043 28.7057 44.439V33.3519C28.7057 32.5867 28.1701 31.9661 27.5097 31.9661H5.98026C5.31978 31.9661 4.78418 32.5867 4.78418 33.3519V44.439C4.78418 45.2043 5.31978 45.8249 5.98026 45.8249H27.5097ZM26.3136 43.0531H17.941V34.7378H26.3136V43.0531ZM7.17634 34.7378H15.5489V43.0531H7.17634V34.7378Z" fill="#1B4583"/>
</svg>
