<svg width="55" height="55" viewBox="0 0 55 55" fill="none" xmlns="http://www.w3.org/2000/svg">
<g clip-path="url(#clip0_121_147)">
<path d="M31.8423 31.3607V54.5186H55.0002V31.3607H31.8423ZM53.0704 52.5888H33.7721V33.2905H42.4563V45.4349L38.314 41.2926L36.9496 42.6569L43.4212 49.1286L49.8929 42.6569L48.5285 41.2926L44.3861 45.4349V33.2905H53.0704V52.5888Z" fill="#1B4583"/>
<path d="M35.7018 28.4659H53.0702V1.44839C53.0702 1.13865 52.9216 0.847249 52.6688 0.664881C52.416 0.482512 52.0927 0.432337 51.7994 0.532688L34.6915 6.23532L18.5543 2.43839C18.481 2.42102 18.4076 2.4133 18.3343 2.4133C18.288 2.4133 18.2436 2.42971 18.1973 2.43646C18.1722 2.44032 18.1481 2.43067 18.1239 2.43646L0.755526 6.29611C0.314561 6.39453 0 6.78532 0 7.23786V48.7291C0 49.0224 0.133158 49.2984 0.361842 49.4817C0.534561 49.6207 0.747807 49.694 0.964912 49.694C1.03439 49.694 1.10482 49.6863 1.1743 49.6718L18.3565 45.8537L28.9474 47.7217V28.4659H33.7719H35.7018ZM28.9474 26.5361C27.8811 26.5361 27.0175 27.3997 27.0175 28.4659V45.4214L19.2982 44.0589V4.59593L33.7719 8.00111V26.5351L28.9474 26.5361Z" fill="#1B4583"/>
</g>
<defs>
<clipPath id="clip0_121_147">
<rect width="55" height="55" fill="white"/>
</clipPath>
</defs>
</svg>
