<svg width="65" height="65" viewBox="0 0 65 65" fill="none" xmlns="http://www.w3.org/2000/svg">
<rect width="65" height="65" fill="white"/>
<path d="M35.4813 17.8881V21.7881L37.804 22.8281C38.5927 22.1434 39.299 21.4024 40.0963 20.7221C40.339 20.5184 40.365 20.0461 40.781 20.1717L44.8283 24.3144L42.185 27.2004L43.2163 29.5144H47.1163V35.4727H43.2163L42.1763 37.7954L44.8543 40.6511L40.7767 44.8197C40.599 44.8847 40.5037 44.7894 40.3737 44.7027C39.8667 44.3604 38.129 42.2241 37.804 42.1634L35.4813 43.2034V47.1034H29.523V43.2034L27.209 42.1721L24.323 44.8154L20.1803 40.7637L20.2973 40.3564L22.8367 37.7911L21.7967 35.4684H17.8967V29.5101H21.7967L22.8367 27.1874L20.1587 24.3317L24.2363 20.1631C24.414 20.0981 24.5093 20.1934 24.6393 20.2801C25.1463 20.6224 26.884 22.7587 27.209 22.8194L29.5317 21.7794V17.8794H35.49L35.4813 17.8881ZM31.187 25.3024C28.951 25.6057 26.689 27.5254 25.805 29.5664C23.036 35.9624 29.9737 42.2587 36.088 38.8571C42.9823 35.0177 39.6327 24.1584 31.187 25.3024Z" fill="#F89F22"/>
<path d="M10.5083 26.403C11.8907 21.6927 14.7073 17.4027 18.6117 14.43C31.2347 4.81002 49.3263 10.608 54.2013 25.4887L58.747 25.272L52.936 32.7254L45.981 26.195L50.3793 25.8397C49.1227 22.3817 46.8087 19.3007 43.8403 17.1297C33.4533 9.51169 18.4123 14.1657 14.4863 26.4117H10.5127L10.5083 26.403Z" fill="#F89F22"/>
<path d="M54.4917 38.6014C53.118 43.3031 50.31 47.6147 46.3883 50.5744C33.683 60.1684 15.7517 54.4267 10.7987 39.5157L6.25301 39.7324L12.064 32.2791L19.019 38.8094L14.6207 39.1647C16.6313 44.7461 21.4283 49.2094 27.1397 50.8344C36.9373 53.6251 47.4327 48.3254 50.5137 38.5971H54.4873L54.4917 38.6014Z" fill="#F89F22"/>
</svg>
