<svg width="71" height="71" viewBox="0 0 71 71" fill="none" xmlns="http://www.w3.org/2000/svg">
<path d="M26.0144 46.3109C26.2558 46.486 26.5446 46.486 26.8286 46.5097C29.8674 46.7653 33.3369 46.2162 36.3615 46.4955C38.3069 46.6753 37.3082 47.3806 37.8288 48.3036L45.8992 56.4591C46.1595 56.6153 46.3488 56.8946 46.6612 56.9561C47.9771 57.207 50.3911 56.639 51.5839 57.0271C52.1803 57.2212 52.327 57.9501 52.0951 58.485C51.7164 59.3559 48.3842 58.8589 47.5132 58.9867C47.6505 60.0565 46.9831 61.2303 45.9276 61.538C45.5394 61.6516 44.9383 61.5759 44.7016 61.7179C44.5407 61.8125 44.4224 62.2906 44.2378 62.5036C43.4852 63.3887 42.0746 63.2515 41.9184 63.384C41.89 63.4077 41.8096 63.8242 41.6865 64.0088C41.3031 64.5768 40.6168 65.0028 39.9257 65.0691C39.4287 65.1164 38.8844 64.8608 38.572 64.946C38.3022 65.017 37.9614 65.585 37.6726 65.7743C36.7638 66.3707 35.1876 66.3423 34.5723 65.3389L35.4906 63.8999C35.6799 63.7579 36.068 64.5531 36.6455 64.1271C37.4786 63.5118 36.2337 63.0148 36.1438 62.6267C36.0396 62.1817 36.494 60.6339 36.1201 59.9287C37.1946 60.5771 38.3448 62.4799 39.3482 63.0337C40.0346 63.4124 40.4511 62.5509 40.0298 62.0255L35.2681 57.2733C34.7948 56.1704 35.6988 55.5361 36.6786 56.0189C37.6537 56.7147 41.4404 61.254 42.1977 61.4197C42.5385 61.4954 43.0355 61.0741 42.9314 60.7049C42.6947 59.8577 39.192 57.1549 38.5483 56.1799C38.1128 55.2332 39.0784 54.3859 39.9588 54.9255L44.9525 59.7772C45.4211 59.8245 45.7572 59.3796 45.6246 58.9441C42.9172 56.1325 40.1387 53.3967 37.3697 50.6419C36.7118 49.9887 36.1911 49.1414 35.306 48.6491C32.5796 48.2515 29.5692 48.7769 26.8428 48.5308C23.0845 48.19 22.8668 43.5087 26.3694 42.7561C29.8863 43.078 34.17 42.3207 37.5922 42.7703C39.992 43.0827 41.3788 46.0127 42.9834 46.4292C44.7348 46.8883 47.7215 46.2162 49.6101 46.5097C50.8834 46.7085 51.0017 48.2989 49.6101 48.5213C48.3984 48.7154 44.6969 48.6397 43.4189 48.4882C40.399 48.1237 39.2914 44.8909 36.9768 44.6305C33.7866 44.2708 29.9478 44.8909 26.6866 44.64C25.844 44.7583 25.5979 45.6198 26.0097 46.3109H26.0144Z" fill="black"/>
<path d="M47.3191 5.02682C48.4646 4.84695 49.3686 5.57588 50.2443 5.59008C51.6832 5.61375 52.5589 4.24582 54.3718 5.54748C55.0297 6.02082 55.3658 6.99588 55.948 7.40295C56.8284 8.01355 58.0496 7.80055 58.8164 8.90342C59.6258 10.0631 59.1288 11.1376 59.4128 12.212C59.7252 13.4048 61.1783 13.5847 60.7097 15.7715C60.5156 16.6708 59.5642 17.324 59.4128 17.9062C59.1382 18.976 59.5595 20.2066 58.7264 21.2811C57.9407 22.294 56.8236 22.1331 55.948 22.7153C55.0723 23.2975 55.025 24.4524 53.6381 24.9305C52.1234 25.4512 51.4608 24.4856 50.2585 24.5187C48.8148 24.5566 48.0859 25.7352 46.3677 24.637C45.5678 24.1258 45.3122 23.1413 44.6968 22.7153C43.8117 22.1047 42.5952 22.3177 41.8284 21.2148C40.9906 20.022 41.5208 19.0186 41.1989 17.9394C41.0285 17.3619 40.1102 16.5809 39.9398 15.923C39.8215 15.4733 39.8073 14.768 39.902 14.3136C40.0676 13.4995 41.0143 12.8037 41.1989 12.1789C41.6296 10.7352 40.7066 9.45722 42.4674 8.29755C43.1538 7.84315 44.2708 7.75322 44.7868 7.34142C45.6198 6.67875 45.8328 5.26348 47.3191 5.03155V5.02682ZM57.3206 10.011C55.2806 9.50928 54.225 8.44428 52.9044 6.92488C50.959 7.62542 49.5958 7.49762 47.6457 6.93908C46.8884 7.45502 46.557 8.43008 45.7855 8.95548C45.1891 9.35782 43.7786 9.61342 43.4567 9.90215C42.9928 10.3234 43.239 11.9659 43.0686 12.638C42.884 13.3575 41.7243 14.4888 41.7243 15.052C41.8758 15.8709 42.813 16.562 43.0402 17.343C43.291 18.2092 43.0023 19.2032 43.3384 20.0883C44.1146 20.5001 45.0566 20.6326 45.7902 21.1486C46.5712 21.7024 47.054 23.0845 47.9108 23.0987C48.6302 23.1082 49.3923 22.6254 50.2443 22.6112C51.0963 22.597 52.4027 23.2454 53.0228 23.0608C53.3872 22.952 54.2724 21.4799 54.935 21.0634C55.5977 20.6468 57.2118 20.448 57.349 19.7286C57.491 18.9712 57.2875 18.195 57.5857 17.3146C57.8034 16.6803 58.9016 15.5064 58.9016 15.052C57.8555 13.3717 57.0792 12.1079 57.3254 10.0063L57.3206 10.011Z" fill="black"/>
<path d="M25.5458 54.2772C25.6784 54.4523 27.3966 54.3719 28.135 55.5032C28.3101 55.773 28.4521 56.4261 28.5704 56.5066C29.0722 56.8569 30.052 56.5729 30.814 57.5054C31.0365 57.7799 31.2495 58.4946 31.4341 58.6035C31.6708 58.7407 32.0163 58.6366 32.253 58.7218C33.4647 59.1478 34.4161 60.0235 34.4113 61.4151C34.4066 62.447 32.7121 64.9272 31.7986 65.3674C30.7336 65.8834 29.2852 65.7603 28.4663 64.8515C28.2202 64.5817 27.9788 63.8101 27.7374 63.6681C27.0132 63.2374 26.2748 63.6255 25.437 62.5747C25.205 62.286 24.9826 61.6044 24.8169 61.4766C24.566 61.2826 24.0122 61.3441 23.5768 61.1547C22.507 60.6956 22.2893 59.517 22.0763 59.3797C21.8491 59.2283 21.0018 59.2898 20.4528 58.9727C18.0861 57.5953 19.2505 55.1576 20.5995 53.5483C21.9438 51.9389 23.9602 51.7828 25.2618 53.5388C25.4512 53.7944 25.4322 54.14 25.5364 54.282L25.5458 54.2772ZM22.9614 54.192C22.2656 54.2109 20.0836 56.8947 21.603 57.3681C22.6396 57.6899 24.9352 54.1447 22.9614 54.192ZM24.1448 59.2662C25.1388 60.2554 26.8333 57.4769 26.696 56.961C26.5209 56.2983 25.7115 56.109 25.1908 56.5682C24.7506 56.961 23.6099 58.736 24.1448 59.2662ZM26.9516 61.4482C27.832 62.3239 29.3798 60.1324 29.5408 59.4934C29.7017 58.8544 29.0343 58.3668 28.4332 58.5467C27.9409 58.6934 26.3363 60.8329 26.9564 61.4482H26.9516ZM31.3962 60.5726C31.0223 60.672 29.3325 62.7736 29.7964 63.3605C30.53 64.7616 32.3429 62.1062 32.4518 61.505C32.5606 60.9039 31.9642 60.4211 31.3962 60.5773V60.5726Z" fill="black"/>
<path d="M16.9264 9.83138L15.3124 9.97338L14.8958 11.1567L14.8154 42.7564C14.2 43.6984 12.922 43.1493 13.0167 42.0654V10.5319C13.3102 8.52024 14.9384 7.63511 16.8507 7.94751L16.9264 9.83138Z" fill="black"/>
<path d="M32.1678 11.9611C31.7702 12.3114 31.1122 12.5812 30.5821 12.638C29.1337 12.7942 22.0006 12.8652 20.822 12.5623C18.6399 12.0085 18.602 9.35781 18.7961 7.56387C18.9523 6.13441 19.9889 5.17827 21.39 5.00787C23.4253 4.76174 28.1918 4.79961 30.2744 4.98421C31.8364 5.12621 32.9488 6.16754 33.1381 7.73901C33.3038 9.08801 33.247 11.005 32.163 11.9611H32.1678ZM21.5651 6.89647C20.254 7.15207 20.3439 10.4228 21.4089 10.7305L30.1182 10.7683C31.4246 10.9151 31.2874 8.39694 31.1264 7.56861C31.0081 6.97221 30.3218 6.90594 29.8106 6.85861C27.2072 6.61721 24.211 7.02427 21.5651 6.89647Z" fill="black"/>
<path d="M19.5344 27.0271L42.6 26.9893C43.5987 27.0413 43.93 28.0211 43.2342 28.7217L19.648 28.8731C18.5594 28.7548 18.4363 27.2685 19.5344 27.0271Z" fill="black"/>
<path d="M19.3783 31.8698L42.7657 31.8271C44.0484 31.9928 43.8212 33.6874 42.6047 33.711H19.8137C18.7298 33.6732 18.3795 32.362 19.383 31.8698H19.3783Z" fill="black"/>
<path d="M19.5345 36.5506L42.6 36.5127C43.8165 36.5364 44.0437 38.2309 42.7609 38.3966H19.6481C18.5499 38.3161 18.5026 36.7872 19.5345 36.5506Z" fill="black"/>
<path d="M42.6758 24.1873H19.6576C18.7488 24.1873 18.1429 22.3461 19.97 22.1567L40.1766 22.2372C40.8676 23.1697 41.819 23.501 42.6758 24.1873Z" fill="black"/>
<path d="M19.5014 18.8814C18.6636 18.7015 18.4837 17.2011 19.5014 17.0117L38.4347 17.0354L39.3956 18.8814H19.4966H19.5014Z" fill="black"/>
<path d="M49.3876 26.8379V42.368C49.3876 42.439 48.9569 43.0164 48.8527 43.078C48.0859 43.5513 47.5321 42.8934 47.3901 42.1644L47.4233 27.1408L49.3829 26.8379H49.3876Z" fill="black"/>
<path d="M17.5513 54.6182L17.1726 56.502C17.0637 56.663 16.8697 56.6346 16.704 56.6582C15.5349 56.805 12.7611 56.7576 11.5399 56.6582C9.47619 56.4831 10.1862 54.6229 11.0761 54.6229H17.5513V54.6182Z" fill="black"/>
<path d="M35.0314 9.8265V7.7959C35.6562 8.2219 39.9824 7.71543 40.1812 7.9521L39.3245 9.82177H35.0314V9.8265Z" fill="black"/>
<path d="M53.8606 11.1326C59.0152 15.847 51.7353 23.6854 46.6517 18.8858C41.677 14.195 48.7912 6.48918 53.8606 11.1326ZM49.6574 11.7384C48.5877 11.9183 47.4138 13.007 47.1203 14.0341C46.0979 17.6078 50.6041 19.9839 52.8855 17.1486C54.8546 14.7015 52.7199 11.2272 49.6574 11.7384Z" fill="black"/>
</svg>
