<svg width="73" height="73" viewBox="0 0 73 73" fill="none" xmlns="http://www.w3.org/2000/svg">
<path d="M3.68893 24.1532L15.2619 12.629L45.99 3.81543C49.5329 4.10257 53.7864 3.3969 57.2417 3.80083C57.6943 3.85437 58.327 4.30697 58.327 4.76443V12.5073H68.2453C68.6054 12.5073 69.2673 13.1594 69.2089 13.5926C68.9607 17.0966 69.5301 21.024 69.2089 24.4793C69.1651 24.9708 68.8001 25.6911 68.2453 25.6911H58.327V68.3669C58.327 68.6881 57.8111 69.1358 57.5581 69.3256H45.9121C45.6639 69.1358 45.1432 68.6881 45.1432 68.3669V25.6911H22.2358V30.6162L25.5646 33.8768V30.7427C25.5646 30.402 26.1875 30.076 26.5233 30.037C27.9103 29.8764 31.9399 29.8667 33.3123 30.037C33.8671 30.1052 34.2808 30.548 34.2759 31.1223V42.5152L38.5197 46.9633C38.9528 47.4548 38.2423 48.5936 37.7848 48.5936H4.51627C4.307 48.5936 3.8398 48.0048 3.68407 47.8247V47.0558L20.0653 30.6113V25.6862H4.64767C4.32647 25.6862 3.87873 25.1704 3.68893 24.9173V24.1484V24.1532ZM52.3167 5.9811H47.5181L47.3283 6.1709V10.8429L52.3215 5.9811H52.3167ZM56.0251 5.9811L55.3145 6.10277L48.9879 12.5073H56.0251V5.9811ZM45.1481 6.36557L23.9051 12.5073H45.1481V6.36557ZM21.7297 14.6827H16.2887C15.622 15.145 15.0185 15.7485 14.5611 16.4104V21.8464L21.7297 14.6827ZM32.6067 14.6827H25.5695V21.8464L32.6067 14.6827ZM43.4885 14.6827H36.4513V21.8464L43.4885 14.6827ZM54.4921 14.6827H47.5181L47.3283 14.8725V21.8464L54.4969 14.6827H54.4921ZM65.3691 14.6827H58.3319V21.8464L65.3691 14.6827ZM34.2711 23.3843V16.3471L27.2339 23.3843H34.2711ZM45.1481 23.3843V16.3471L38.1109 23.3843H45.1481ZM67.0335 23.3843V16.3471L59.9963 23.3843H67.0335ZM23.2675 23.3843V16.4736L16.3569 23.3843H23.2675ZM56.0251 23.3843V16.4736L49.1144 23.3843H56.0251ZM12.3905 23.3843V18.5225L7.52873 23.3843H12.3905ZM54.4921 25.6911H47.3235V32.7283L54.4921 25.6911ZM56.0251 34.3927V27.3555L48.9879 34.3927H56.0251ZM32.0957 32.2173H27.7449V36.7579C27.7449 37.3516 26.6109 37.9989 26.0902 37.5122L21.1505 32.7283L7.52387 46.4182H34.7821L32.0957 43.5372V32.2124V32.2173ZM54.4921 36.5681H47.3235V43.6053L54.4921 36.5681ZM56.0251 45.2697V38.2325L48.9879 45.2697H56.0251ZM54.4921 47.4451H47.5181L47.3283 47.6349V54.6088L54.4969 47.4451H54.4921ZM56.0251 56.1467V49.236L49.1144 56.1467H56.0251ZM54.4921 58.4486H47.3235V65.4858L54.4921 58.4486ZM56.0251 67.1502V60.113L48.9879 67.1502H56.0251Z" fill="black"/>
<path d="M3.68893 53.7134C3.96147 53.2852 4.17073 52.9201 4.76933 52.9347L37.9843 53.0175C38.4272 53.2316 38.5927 53.5382 38.6365 54.0249C39.0599 58.5606 38.2958 63.7631 38.6365 68.3718L37.9892 69.3257H3.68893V53.7134ZM36.4465 55.1199H5.86433V67.1503H16.7413V58.3854C16.7413 57.7722 17.3789 57.344 17.9531 57.2904C20.0604 57.1006 22.4645 57.4413 24.6059 57.305C24.9855 57.3002 25.5743 57.9377 25.5743 58.2589V67.1503H36.4513V55.1199H36.4465ZM23.2675 59.4707H19.0433V67.1503H23.2675V59.4707Z" fill="black"/>
<path d="M62.6827 27.8666H60.5073V30.042H62.6827V27.8666Z" fill="black"/>
<path d="M62.6827 32.2173H60.5073V34.3927H62.6827V32.2173Z" fill="black"/>
<path d="M62.6827 36.5681H60.5073V38.7435H62.6827V36.5681Z" fill="black"/>
</svg>
