<svg width="61" height="61" viewBox="0 0 61 61" fill="none" xmlns="http://www.w3.org/2000/svg">
<path d="M46.2989 32.375C49.2513 36.0716 52.9886 39.4022 55.9329 43.0622C56.3883 43.6274 56.7299 43.9934 56.1606 44.6522L51.6995 48.5074C51.0488 48.6538 50.6625 48.0886 50.268 47.6778C47.462 44.7661 44.3551 41.3135 41.7402 38.2228C41.1953 37.5803 40.4714 36.9866 40.691 36.1082L37.8972 32.9972C35.1969 34.514 32.2527 35.8194 29.0847 35.8235L28.8367 36.1814C29.2027 39.2842 27.3645 46.6571 31.9436 47.2834C35.4165 47.7551 41.0855 46.2708 43.9199 48.4424C47.7589 51.3866 45.9289 57.6249 41.1465 58.0356C33.6272 58.6822 25.197 57.5314 17.5842 58.0356C16.6163 58.1088 16.2341 57.2467 16.9091 56.592L40.7967 56.474C45.7011 55.8844 45.3595 49.3411 40.996 48.9507C38.0029 48.6823 32.944 49.5892 30.3454 48.4261C25.6647 46.3277 27.8688 39.939 27.2588 35.9414C25.9615 35.734 24.6724 35.6161 23.3995 35.2704C5.56722 30.4433 7.16948 3.91238 25.6037 1.34224C40.7642 -0.772424 50.8902 16.1286 42.2648 28.6214L45.2091 32.0334L46.2949 32.3709L46.2989 32.375ZM26.234 2.87944C15.3801 3.92458 9.14181 16.1774 14.1072 25.8236C20.2357 37.7226 37.8606 36.8564 42.7243 24.388C47.1204 13.1112 38.1168 1.73671 26.234 2.87944ZM41.1587 30.0692L39.2433 31.9439L42.0249 35.0346L44.0785 33.1558L41.1587 30.0692ZM45.3961 34.1562C45.2294 34.2009 42.9765 36.3115 42.8667 36.4782C42.7731 36.6206 42.6715 36.7182 42.7406 36.9093L51.2481 46.405C51.3741 46.5554 51.4677 46.531 51.6344 46.4863C52.1509 46.3399 53.9077 44.3188 54.4973 43.8958C51.6954 41.0044 49.1903 37.8162 46.425 34.8963C46.1851 34.6442 45.7459 34.0667 45.3961 34.1602V34.1562Z" fill="black"/>
<path d="M10.2318 34.3351C12.4115 34.083 14.8149 35.0305 16.1285 36.8158C19.0646 40.8052 16.6205 46.2016 13.6641 49.4184C11.1915 52.1105 10.244 51.651 8.00325 49.0361C5.77472 46.4294 3.89999 42.6392 4.74992 39.1297C5.35585 36.6246 7.68199 34.632 10.2318 34.3392V34.3351ZM10.0773 35.9943C8.55632 36.218 7.07199 37.5193 6.51079 38.9223C5.28265 41.9967 7.37292 45.9495 9.43472 48.2065C9.99999 48.8246 10.7035 49.8738 11.4843 49.3452C13.3062 48.1048 15.6649 43.8186 15.8519 41.6226C16.1488 38.1049 13.6559 35.4697 10.0813 35.9943H10.0773Z" fill="black"/>
<path d="M12.6799 56.5226L12.7734 56.8358C13.4526 57.3563 15.9454 58.2672 15.677 59.2839C15.6323 59.4506 15.3029 59.78 15.1362 59.8248C14.3594 60.0322 11.8666 57.889 10.9434 57.6328C10.1464 57.9785 7.60469 60.0118 6.90116 59.8248C6.48636 59.715 6.24236 59.1578 6.36436 58.7471C6.51076 58.2469 8.78809 57.1326 9.35742 56.8195L9.26389 56.5104C8.72709 56.1404 6.74662 55.2294 6.47822 54.7902C6.20982 54.351 6.36029 53.6597 6.90116 53.5174C7.61689 53.3262 10.1342 55.388 10.9434 55.7093C11.3501 55.7378 13.843 53.8346 14.5343 53.6068C15.0345 53.4442 15.5835 53.6272 15.673 54.2087C15.8072 55.079 13.3631 56.1241 12.6799 56.5226Z" fill="black"/>
<path d="M27.2914 4.84739C38.3731 4.19673 45.6809 16.5675 39.6134 25.9615C33.7127 35.0993 19.9063 34.0501 15.5672 24.0624C11.7567 15.2947 17.7835 5.40453 27.2914 4.84739ZM27.3239 30.6585C27.328 29.8045 27.0555 28.6415 28.2999 28.8448C29.2353 28.9993 28.5846 30.3088 28.9831 30.5975C37.8403 29.9835 43.0538 20.1787 38.5235 12.4114C34.0787 4.78639 22.9482 4.40819 18.056 11.7689C12.8263 19.6338 18.1089 29.9387 27.328 30.6585H27.3239Z" fill="black"/>
<path d="M10.2236 37.3523C15.315 36.4739 15.5916 44.2168 10.4879 43.6678C7.01497 43.2937 6.97431 37.9135 10.2236 37.3523ZM12.1756 41.6507C13.6396 40.1827 11.4232 37.9013 9.88197 39.2758C8.27971 40.7032 10.5774 43.253 12.1756 41.6507Z" fill="black"/>
<path d="M28.8327 24.6116C29.2516 27.1004 26.958 27.019 27.3199 24.6116C25.9901 24.8068 23.1922 27.7144 22.3016 25.6282C21.895 24.6766 23.0906 21.5575 22.9157 20.3294C22.8466 20.1098 20.0528 17.743 19.6176 17.1248C19.1418 16.4457 19.2882 15.4697 20.065 15.1566C21.3053 14.6523 23.546 14.8353 24.9002 14.4042C25.5712 13.5909 26.7221 10.0936 27.5029 9.75603C29.585 8.84916 30.2479 13.29 31.2402 14.4042C32.6147 14.8312 34.8066 14.6564 36.0754 15.1566C36.9498 15.5022 37.023 16.4091 36.5268 17.1248C36.0307 17.8406 33.3467 20.0244 33.2288 20.4839C33.2613 21.8869 33.8835 23.4851 33.9608 24.8393C34.0136 25.7543 33.3833 26.588 32.4114 26.3928C31.9356 26.2992 29.0035 24.4082 28.8286 24.6075L28.8327 24.6116ZM28.2268 11.7568C27.8852 11.6918 27.9868 11.7772 27.8933 11.948C27.4785 12.7084 26.5594 15.2745 26.0064 15.6893C25.3272 16.2017 22.9401 16.2302 21.9641 16.4416C21.7608 16.4864 21.5818 16.4254 21.4395 16.6694C21.4476 17.0069 24.3634 19.0931 24.5708 19.882C24.7904 20.7157 23.7656 24.1317 24.0056 24.457C25.0588 24.1236 27.0068 22.5254 28.0072 22.4806C28.8734 22.444 32.0942 24.6278 32.3056 24.457C32.2243 23.3509 31.3703 21.0044 31.5777 20.0325C31.7241 19.3493 33.9364 17.625 34.4935 16.8971C34.6114 16.7466 34.7863 16.706 34.7172 16.4416C33.6639 16.2627 31.167 16.279 30.3455 15.7544C29.6257 15.2948 28.6822 12.6108 28.2227 11.7528L28.2268 11.7568Z" fill="black"/>
</svg>
