<svg width="62" height="62" viewBox="0 0 62 62" fill="none" xmlns="http://www.w3.org/2000/svg">
<rect width="62" height="62" fill="white"/>
<path d="M47.058 32.9055C50.0588 36.6627 53.8573 40.0479 56.8499 43.7679C57.3128 44.3424 57.66 44.7144 57.0813 45.384L52.5471 49.3024C51.8857 49.4512 51.4931 48.8767 51.0921 48.4592C48.2401 45.4997 45.0823 41.9905 42.4245 38.8492C41.8707 38.1961 41.1349 37.5927 41.3581 36.6999L38.5185 33.5379C35.774 35.0796 32.7815 36.4064 29.5616 36.4105L29.3095 36.7743C29.6815 39.928 27.8132 47.4217 32.4673 48.0583C35.9972 48.5377 41.7591 47.0291 44.64 49.2363C48.5419 52.2288 46.6819 58.5693 41.8211 58.9868C34.1785 59.644 25.6101 58.4743 17.8725 58.9868C16.8888 59.0612 16.5003 58.1849 17.1864 57.5195L41.4656 57.3996C46.4504 56.8003 46.1032 50.1497 41.6681 49.7529C38.626 49.4801 33.4841 50.4019 30.8429 49.2197C26.0855 47.0869 28.3257 40.5935 27.7057 36.5304C26.3872 36.3196 25.0769 36.1997 23.7832 35.8484C5.65854 30.9421 7.28707 3.97627 26.0235 1.364C41.4325 -0.78533 51.7245 16.3928 42.9577 29.0904L45.9503 32.5583L47.0539 32.9013L47.058 32.9055ZM26.6641 2.9264C15.6323 3.98867 9.29174 16.4424 14.3385 26.2467C20.5675 38.3408 38.4813 37.4604 43.4248 24.7876C47.8929 13.3259 38.7417 1.76494 26.6641 2.9264ZM41.8335 30.5619L39.8867 32.4673L42.7139 35.6087L44.8012 33.6991L41.8335 30.5619ZM46.1404 34.7159C45.9709 34.7613 43.6811 36.9065 43.5695 37.076C43.4744 37.2207 43.3711 37.3199 43.4413 37.5141L52.0883 47.1655C52.2164 47.3184 52.3115 47.2936 52.4809 47.2481C53.0059 47.0993 54.7915 45.0451 55.3908 44.6152C52.5429 41.6764 49.9968 38.4359 47.1861 35.4681C46.9423 35.2119 46.4959 34.6249 46.1404 34.72V34.7159Z" fill="#F89F22"/>
<path d="M10.3995 34.8978C12.6149 34.6415 15.0577 35.6046 16.3928 37.4191C19.3771 41.4739 16.8929 46.9588 13.888 50.2283C11.3749 52.9646 10.4119 52.4975 8.1344 49.8398C5.86933 47.1903 3.96387 43.338 4.82773 39.771C5.4436 37.2248 7.80787 35.1995 10.3995 34.9019V34.8978ZM10.2424 36.5842C8.69653 36.8115 7.18787 38.1342 6.61747 39.5602C5.3692 42.685 7.49373 46.7026 9.58933 48.9966C10.1639 49.6248 10.8789 50.6912 11.6725 50.1539C13.5243 48.8932 15.9216 44.5367 16.1117 42.3047C16.4135 38.7294 13.8797 36.051 10.2465 36.5842H10.2424Z" fill="#F89F22"/>
<path d="M12.8877 57.4493L12.9828 57.7676C13.6731 58.2966 16.2068 59.2225 15.934 60.2558C15.8885 60.4253 15.5537 60.7601 15.3843 60.8056C14.5948 61.0164 12.0611 58.8381 11.1228 58.5777C10.3127 58.929 7.72933 60.9957 7.01426 60.8056C6.59266 60.694 6.34466 60.1277 6.46866 59.7102C6.61746 59.2018 8.93213 58.0693 9.5108 57.751L9.41573 57.4369C8.87013 57.0608 6.8572 56.1349 6.5844 55.6885C6.3116 55.2421 6.46453 54.5394 7.01426 54.3948C7.74173 54.2005 10.3003 56.2961 11.1228 56.6226C11.5361 56.6516 14.0699 54.7172 14.7725 54.4857C15.2809 54.3204 15.8389 54.5064 15.9299 55.0974C16.0663 55.982 13.5821 57.0442 12.8877 57.4493Z" fill="#F89F22"/>
<path d="M27.7388 4.9269C39.0021 4.26557 46.4297 16.8392 40.2628 26.3872C34.2653 35.6748 20.2327 34.6084 15.8224 24.4569C11.9495 15.5454 18.0751 5.49317 27.7388 4.9269ZM27.7719 31.1612C27.776 30.2932 27.4991 29.111 28.7639 29.3177C29.7145 29.4748 29.0532 30.8057 29.4583 31.0992C38.4607 30.475 43.7596 20.5096 39.1551 12.6149C34.6373 4.8649 23.3244 4.4805 18.352 11.9618C13.0365 19.9557 18.4057 30.4296 27.776 31.1612H27.7719Z" fill="#F89F22"/>
<path d="M10.3912 37.9647C15.5661 37.0719 15.8472 44.9418 10.6599 44.3838C7.13 44.0035 7.08867 38.5351 10.3912 37.9647ZM12.3752 42.3337C13.8632 40.8415 11.6105 38.5227 10.044 39.9198C8.41547 41.3706 10.7508 43.9622 12.3752 42.3337Z" fill="#F89F22"/>
<path d="M29.3053 25.015C29.7311 27.5446 27.3999 27.462 27.7677 25.015C26.4161 25.2134 23.5724 28.1688 22.6672 26.0484C22.2539 25.0812 23.4691 21.9109 23.2913 20.6626C23.2211 20.4394 20.3815 18.0338 19.9392 17.4056C19.4556 16.7153 19.6044 15.7233 20.3939 15.405C21.6545 14.8925 23.932 15.0785 25.3084 14.6404C25.9904 13.8137 27.1601 10.259 27.9537 9.91598C30.07 8.99424 30.7437 13.5078 31.7523 14.6404C33.1493 15.0744 35.3772 14.8966 36.6668 15.405C37.5555 15.7564 37.6299 16.6781 37.1256 17.4056C36.6213 18.133 33.8933 20.3526 33.7735 20.8197C33.8065 22.2457 34.4389 23.8701 34.5175 25.2465C34.5712 26.1765 33.9305 27.0238 32.9427 26.8254C32.4591 26.7304 29.4789 24.8084 29.3012 25.0109L29.3053 25.015ZM28.6895 11.9496C28.3423 11.8834 28.4456 11.9702 28.3505 12.1438C27.9289 12.9168 26.9948 15.5249 26.4327 15.9465C25.7424 16.4673 23.3161 16.4962 22.3241 16.7112C22.1175 16.7566 21.9356 16.6946 21.7909 16.9426C21.7992 17.2857 24.7628 19.4061 24.9736 20.208C25.1968 21.0553 24.1552 24.5273 24.3991 24.858C25.4696 24.519 27.4495 22.8946 28.4663 22.8492C29.3467 22.812 32.6203 25.0316 32.8352 24.858C32.7525 23.7337 31.8845 21.3488 32.0953 20.3609C32.2441 19.6665 34.4927 17.914 35.0589 17.1741C35.1788 17.0212 35.3565 16.9798 35.2863 16.7112C34.2157 16.5293 31.6779 16.5458 30.8429 16.0126C30.1113 15.5456 29.1524 12.8176 28.6853 11.9454L28.6895 11.9496Z" fill="#F89F22"/>
</svg>
