<svg width="61" height="61" viewBox="0 0 61 61" fill="none" xmlns="http://www.w3.org/2000/svg">
<path d="M16.4904 9.07254C16.7425 7.18968 18.2878 6.02661 20.1219 5.96154C31.4516 5.55894 43.1799 6.45768 54.5625 6.04694C56.4291 6.21368 57.5271 7.88101 57.58 9.65408L57.5718 52.0694C57.3929 53.8587 56.1038 55.2861 54.2656 55.3878H19.6502C17.7348 55.1845 16.6286 53.6025 16.4863 51.7807C16.0349 46.0548 16.8645 39.7759 16.4578 33.9931C12.688 26.6893 7.62096 19.6459 3.95283 12.334C3.65596 11.7443 3.03376 11.0083 3.77796 10.4877L12.444 5.59961L13.115 5.85988L16.4944 11.6427C16.5717 10.8293 16.3887 9.85334 16.4944 9.06441L16.4904 9.07254ZM12.0252 7.69394L5.51036 11.5003L7.06383 14.3877L13.7779 10.6219L12.2936 7.82001L12.0292 7.69394H12.0252ZM18.2553 37.2749V52.5167C18.2553 52.9966 19.6827 53.9238 20.2358 53.7733H53.8224C54.6438 53.7489 55.3718 53.3301 55.7378 52.5981V8.84888C55.5019 8.16974 54.9854 7.75901 54.2616 7.67361L19.4265 7.74274C18.8002 8.02334 18.3366 8.51541 18.2512 9.21894C18.0438 10.931 18.357 13.1392 18.3244 14.896L29.9673 35.0585L31.3744 47.3602C31.3215 48.0312 30.6749 48.3769 30.073 48.0556C27.6534 46.1483 25.1076 44.3875 22.6839 42.4843C22.0251 41.9678 20.8986 41.2277 20.3862 40.6583C19.5566 39.7433 19.1296 38.1858 18.2553 37.2667V37.2749ZM14.8678 12.0941L8.48716 15.6524L8.1171 16.116L20.8295 38.1573L27.5192 34.1232L14.8678 12.0941ZM28.4138 35.8027C28.3284 35.7092 27.5964 36.1321 27.4338 36.2175C26.0064 36.9699 23.2248 38.4339 22.0373 39.3611C21.8746 39.4871 21.7323 39.5075 21.7933 39.7759L29.4508 45.3716L28.422 35.8027H28.4138Z" fill="black"/>
<path d="M51.4962 20.5246C52.4316 21.5657 50.5202 21.9114 49.8492 21.9642C42.4154 22.5458 34.2332 21.5128 26.718 21.9642C24.8758 21.9561 24.3187 20.4148 26.4212 20.1871H50.4389C50.7114 20.183 51.3336 20.3416 51.4962 20.5246Z" fill="black"/>
<path d="M22.8587 13.5256C22.4317 13.0742 22.8303 12.4154 23.3711 12.2772L50.4348 12.2324C51.9598 12.4724 51.5857 13.912 50.142 13.8632H23.9161C23.6355 13.8632 23.0377 13.7127 22.8587 13.5256Z" fill="black"/>
<path d="M41.0815 47.8726C41.3336 48.1085 43.8753 45.4041 45.5548 46.2744C46.3234 46.6729 46.2624 47.7262 46.238 48.4623C47.1774 48.1491 48.0558 47.5351 49.101 47.5757C49.7516 47.6001 50.6951 47.8726 50.6504 48.6737C50.5853 49.8124 49.1579 49.2593 48.4056 49.3854C47.3767 49.5562 44.6439 51.7644 44.4731 49.1129C44.4528 48.8039 44.8716 47.7872 44.3918 47.8767C43.1433 48.1166 40.687 51.3333 39.2434 49.3488C38.2755 48.0231 40.504 46.5143 40.4186 45.2293C39.9591 45.5953 39.463 46.1036 39.1051 46.5672C38.7798 46.982 38.121 48.2752 37.9176 48.4745C37.7265 48.6615 37.4866 48.6209 37.2507 48.6209C37.3768 49.0397 38.0478 48.568 38.1738 49.1007C38.8204 50.4834 35.9331 50.8413 35.9697 49.0153C35.9941 47.7262 37.9014 45.2659 38.8652 44.4241C42.1714 41.5408 43.1514 45.6319 41.0774 47.8848L41.0815 47.8726Z" fill="black"/>
<path d="M34.1193 28.178C39.1864 28.483 45.0017 27.6493 49.9875 28.1454C50.4917 28.1942 51.4596 28.3976 51.3945 29.093C51.2441 29.6542 50.6503 29.8697 50.1339 29.9104C45.0993 29.4956 39.1579 30.4675 34.2291 29.9104C32.6431 29.7314 32.513 28.483 34.1153 28.178H34.1193Z" fill="black"/>
<path d="M51.2033 37.5314C51.0691 37.6819 50.512 37.8445 50.2883 37.8689C46.9496 38.239 42.9439 37.5802 39.532 37.8689C38.1778 37.7103 38.1778 36.4009 39.532 36.2423C42.9724 36.5473 47.0757 35.8478 50.4347 36.2423C51.1139 36.3236 51.7808 36.8889 51.2033 37.5314Z" fill="black"/>
</svg>
