<svg width="84" height="84" viewBox="0 0 84 84" fill="none" xmlns="http://www.w3.org/2000/svg">
<g clip-path="url(#clip0_71_35)">
<path d="M52.9599 -0.047574C53.1366 -0.0486761 53.3133 -0.0497781 53.4954 -0.0509136C54.0787 -0.0540262 54.662 -0.0546713 55.2454 -0.0550241C55.652 -0.0560789 56.0586 -0.0571828 56.4653 -0.0583336C57.3176 -0.0602977 58.1699 -0.0609063 59.0222 -0.0607119C60.1119 -0.0606785 61.2015 -0.0651556 62.2912 -0.070809C63.1312 -0.0744657 63.9712 -0.0751226 64.8112 -0.0749493C65.2128 -0.0753354 65.6144 -0.0767807 66.016 -0.079324C66.5791 -0.0825554 67.1419 -0.0815891 67.705 -0.0796175C67.9515 -0.0823834 67.9515 -0.0823834 68.2031 -0.0852051C69.692 -0.0720215 70.9966 0.330608 72.1002 1.3613C73.0164 2.3803 73.5413 3.51683 73.5402 4.89913C73.5409 5.08854 73.5415 5.27795 73.5422 5.4731C73.5413 5.67961 73.5403 5.88612 73.5393 6.0989C73.5395 6.32171 73.5398 6.54453 73.5402 6.76734C73.5409 7.37867 73.5396 7.98998 73.5379 8.60131C73.5365 9.26091 73.537 9.9205 73.5373 10.5801C73.5374 11.7226 73.5364 12.865 73.5346 14.0075C73.5319 15.6594 73.531 17.3112 73.5306 18.963C73.5299 21.643 73.5277 24.323 73.5246 27.003C73.5216 29.6063 73.5193 32.2097 73.5179 34.813C73.5178 34.9735 73.5177 35.1339 73.5176 35.2993C73.5172 36.1044 73.5168 36.9094 73.5164 37.7145C73.513 44.393 73.5072 51.0716 73.4999 57.7501C74.3288 57.6344 74.9177 57.3781 75.6224 56.94C77.0546 56.0534 78.375 55.7847 80.0624 55.9454C81.7232 56.3559 82.9021 57.3024 83.8307 58.7101C83.9999 59.0626 83.9999 59.0626 83.9999 59.7188C83.8799 59.7858 83.76 59.8528 83.6364 59.9219C83.1884 60.1722 82.7404 60.4226 82.2925 60.6731C82.0045 60.8342 81.7165 60.9951 81.4284 61.156C81.246 61.258 81.0636 61.3601 80.8756 61.4652C80.7081 61.5589 80.5406 61.6525 80.3679 61.749C80.0583 61.9249 79.7523 62.1074 79.4508 62.2969C79.078 62.5079 79.078 62.5079 78.6986 62.4977C78.2128 62.3282 77.7799 62.1088 77.3316 61.8574C75.5506 61.0747 73.2391 61.0656 71.4299 61.7485C70.5038 62.1944 69.6108 62.7075 68.7322 63.2406C68.597 63.3199 68.4617 63.3991 68.3223 63.4807C68.2016 63.5539 68.081 63.627 67.9567 63.7024C67.4579 63.8645 67.2346 63.7186 66.7733 63.4923C65.7691 63.1819 65.1883 63.399 64.2714 63.8717C63.8997 64.0692 63.5319 64.2723 63.1639 64.4767C62.9459 64.5874 62.7275 64.6976 62.5077 64.8048C62.4282 64.6641 62.3486 64.5235 62.2667 64.3786C61.3451 62.7898 60.3518 61.5236 58.5702 60.8673C57.3792 60.578 56.2136 60.4911 54.9922 60.4885C54.6555 60.4848 54.3188 60.4811 53.982 60.4772C53.7219 60.475 53.7219 60.475 53.4566 60.4727C46.7852 60.4066 40.6546 59.2745 34.1249 57.9142C34.1249 47.465 34.1249 37.0159 34.1249 26.2501C26.6104 25.266 26.6104 25.266 17.2508 28.0368C15.8648 29.771 15.8893 31.687 15.8803 33.8142C15.8787 34.0488 15.877 34.2833 15.8753 34.5179C15.8709 35.152 15.8675 35.7861 15.8642 36.4202C15.8606 37.0839 15.8561 37.7476 15.8517 38.4112C15.8435 39.6668 15.8361 40.9224 15.8291 42.178C15.8209 43.608 15.8119 45.0379 15.8029 46.4679C15.7842 49.4083 15.7667 52.3487 15.7499 55.2892C15.5833 55.3539 15.4167 55.4187 15.2451 55.4854C15.023 55.5727 14.801 55.66 14.579 55.7474C14.4696 55.7898 14.3602 55.8322 14.2475 55.8758C12.3181 56.6383 10.3983 57.885 9.3822 59.7291C9.13498 60.0751 9.13498 60.0751 8.69519 60.3751C8.10496 60.4557 7.52387 60.4357 6.92959 60.4155C6.76837 60.4126 6.60714 60.4096 6.44103 60.4066C6.04382 60.399 5.64693 60.3884 5.24987 60.3751C5.23443 57.6009 5.22292 54.8268 5.21587 52.0526C5.21251 50.764 5.20794 49.4754 5.20037 48.1868C5.19375 47.0616 5.18958 45.9363 5.18813 44.8111C5.18729 44.2172 5.18536 43.6233 5.18049 43.0295C5.1049 33.4154 8.34687 24.7987 15.0656 17.8644C16.3061 16.6062 17.5968 15.4689 19.0311 14.4376C19.1246 14.3697 19.2181 14.3017 19.3144 14.2317C20.572 13.3273 21.89 12.5527 23.2557 11.8228C23.3953 11.7472 23.5349 11.6716 23.6787 11.5937C25.313 10.7425 26.8481 10.4238 28.6839 10.4347C28.8615 10.4343 29.039 10.4338 29.222 10.4333C29.594 10.433 29.9659 10.4339 30.3379 10.4359C30.9071 10.4386 31.4761 10.4359 32.0453 10.4328C32.4082 10.4331 32.7711 10.4338 33.1341 10.4347C33.3884 10.4332 33.3884 10.4332 33.6478 10.4317C34.648 10.4415 35.2765 10.5181 36.0193 11.2384C36.7123 12.1024 36.7735 12.7161 36.7685 13.7898C36.7685 13.9243 36.7685 14.0588 36.7686 14.1973C36.7685 14.6421 36.7672 15.0868 36.7659 15.5316C36.7656 15.8398 36.7654 16.1481 36.7652 16.4564C36.7646 17.268 36.763 18.0795 36.7611 18.8911C36.7595 19.7192 36.7587 20.5472 36.7579 21.3753C36.7561 23.0002 36.7533 24.6252 36.7499 26.2501C36.9572 26.2478 37.1646 26.2456 37.3782 26.2433C38.6168 26.2299 39.7029 26.7733 40.6002 27.6113C41.5512 28.6691 42.0417 29.8166 42.0393 31.2465C42.04 31.5612 42.04 31.5612 42.0407 31.8822C42.0395 32.1126 42.0383 32.3431 42.0371 32.5735C42.037 32.8177 42.0371 33.0619 42.0373 33.3061C42.0374 33.9674 42.0354 34.6286 42.0331 35.2899C42.0311 35.9816 42.0309 36.6733 42.0305 37.365C42.0295 38.674 42.0268 39.9831 42.0235 41.2921C42.0198 42.7828 42.018 44.2734 42.0164 45.7641C42.013 48.8297 42.0072 51.8954 41.9999 54.961C42.2903 54.9112 42.5807 54.8605 42.8709 54.8095C43.1135 54.7674 43.1135 54.7674 43.3609 54.7243C44.5915 54.4707 45.5438 53.7029 46.236 52.6763C47.0826 51.1878 47.1101 49.6781 47.1073 48.0041C47.1077 47.8166 47.108 47.6292 47.1084 47.4361C47.1094 46.8087 47.1092 46.1813 47.1091 45.5538C47.1095 45.1037 47.1101 44.6537 47.1108 44.2036C47.1121 43.2345 47.1129 42.2654 47.1135 41.2964C47.1144 39.7638 47.1172 38.2313 47.1203 36.6987C47.1213 36.1739 47.1223 35.6491 47.1234 35.1243C47.1236 34.9932 47.1239 34.862 47.1242 34.7269C47.1271 33.2353 47.1298 31.7436 47.1322 30.252C47.1325 30.1157 47.1327 29.9794 47.1329 29.8389C47.1365 27.6302 47.1383 25.4215 47.1395 23.2128C47.1408 20.9432 47.1447 18.6736 47.1507 16.4039C47.1543 15.0051 47.1559 13.6063 47.1548 12.2075C47.1543 11.2485 47.1562 10.2895 47.1599 9.33047C47.162 8.77766 47.1627 8.22495 47.1612 7.67214C47.1597 7.07175 47.1623 6.4715 47.1658 5.87112C47.1638 5.61135 47.1637 5.61135 47.1616 5.34634C47.1781 3.83577 47.5636 2.52133 48.6111 1.39975C49.9232 0.220073 51.2393 -0.0491181 52.9599 -0.047574ZM52.4999 5.25009C52.4999 8.71509 52.4999 12.1801 52.4999 15.7501C53.3661 15.7501 54.2324 15.7501 55.1249 15.7501C55.1249 12.2851 55.1249 8.82009 55.1249 5.25009C54.2586 5.25009 53.3924 5.25009 52.4999 5.25009ZM57.7499 5.25009C57.7499 8.71509 57.7499 12.1801 57.7499 15.7501C59.4824 15.7501 61.2149 15.7501 62.9999 15.7501C62.9999 12.2851 62.9999 8.82009 62.9999 5.25009C61.2674 5.25009 59.5349 5.25009 57.7499 5.25009ZM65.6249 5.25009C65.6249 8.71509 65.6249 12.1801 65.6249 15.7501C66.4911 15.7501 67.3574 15.7501 68.2499 15.7501C68.2499 12.2851 68.2499 8.82009 68.2499 5.25009C67.3836 5.25009 66.5174 5.25009 65.6249 5.25009ZM52.4999 21.0001C52.4999 26.1976 52.4999 31.3951 52.4999 36.7501C53.3661 36.7501 54.2324 36.7501 55.1249 36.7501C55.1249 31.5526 55.1249 26.3551 55.1249 21.0001C54.2586 21.0001 53.3924 21.0001 52.4999 21.0001ZM57.7499 21.0001C57.7499 26.1976 57.7499 31.3951 57.7499 36.7501C59.4824 36.7501 61.2149 36.7501 62.9999 36.7501C62.9999 31.5526 62.9999 26.3551 62.9999 21.0001C61.2674 21.0001 59.5349 21.0001 57.7499 21.0001ZM65.6249 21.0001C65.6249 26.1976 65.6249 31.3951 65.6249 36.7501C66.4911 36.7501 67.3574 36.7501 68.2499 36.7501C68.2499 31.5526 68.2499 26.3551 68.2499 21.0001C67.3836 21.0001 66.5174 21.0001 65.6249 21.0001ZM52.4999 42.0001C52.4999 45.4651 52.4999 48.9301 52.4999 52.5001C53.3661 52.5001 54.2324 52.5001 55.1249 52.5001C55.1249 49.0351 55.1249 45.5701 55.1249 42.0001C54.2586 42.0001 53.3924 42.0001 52.4999 42.0001ZM57.7499 42.0001C57.7499 45.4651 57.7499 48.9301 57.7499 52.5001C59.4824 52.5001 61.2149 52.5001 62.9999 52.5001C62.9999 49.0351 62.9999 45.5701 62.9999 42.0001C61.2674 42.0001 59.5349 42.0001 57.7499 42.0001ZM65.6249 42.0001C65.6249 45.4651 65.6249 48.9301 65.6249 52.5001C66.4911 52.5001 67.3574 52.5001 68.2499 52.5001C68.2499 49.0351 68.2499 45.5701 68.2499 42.0001C67.3836 42.0001 66.5174 42.0001 65.6249 42.0001Z" fill="#1B4583"/>
<path d="M18.5391 52.5C20.3257 52.5 22.1123 52.5 23.9531 52.5C23.9531 54.2325 23.9531 55.965 23.9531 57.75C35.2674 60.601 35.2674 60.601 46.7578 62.5078C46.8857 62.5215 47.0137 62.5352 47.1455 62.5492C48.3432 62.6686 49.5353 62.7072 50.7383 62.7308C51.1526 62.7413 51.5669 62.752 51.9812 62.7629C52.6271 62.7795 53.2728 62.795 53.9188 62.8069C54.5472 62.819 55.1754 62.836 55.8037 62.8539C55.9958 62.8563 56.1879 62.8587 56.3859 62.8612C57.6795 62.9039 58.5483 63.1435 59.4752 64.0684C60.369 65.0877 60.4491 65.8536 60.4256 67.1862C60.3303 68.2625 59.9435 68.9042 59.1548 69.624C58.3931 70.2567 57.725 70.4233 56.7432 70.3642C53.5717 70.2612 51.7133 70.8552 49.0456 72.685C48.2519 73.2154 47.4233 73.6849 46.5938 74.1563C47.4627 74.926 47.4627 74.926 48.5574 75.1214C52.6885 74.6028 56.5866 73.5048 60.0611 71.1881C60.8568 70.6669 61.6832 70.2001 62.5078 69.7266C62.832 69.5375 63.1561 69.3483 63.48 69.1588C65.0592 68.2376 66.6433 67.3249 68.2281 66.4135C68.7336 66.1221 69.2382 65.8292 69.7426 65.5359C70.0517 65.3571 70.3608 65.1783 70.6699 64.9995C70.8794 64.877 70.8794 64.877 71.093 64.7521C72.648 63.856 74.1495 63.4901 75.9424 63.9389C76.3508 64.0934 76.7262 64.2674 77.1094 64.4766C77.2153 64.5341 77.3213 64.5916 77.4305 64.6509C78.2379 65.1575 78.8554 65.9017 79.2422 66.7734C79.213 67.0966 79.213 67.0966 79.0781 67.4297C78.7834 67.6583 78.7834 67.6583 78.3924 67.868C78.2456 67.9486 78.0987 68.0291 77.9474 68.1121C77.7052 68.2413 77.7052 68.2413 77.458 68.373C77.1106 68.5636 76.7635 68.7546 76.4166 68.946C76.1428 69.0966 76.1428 69.0966 75.8634 69.2502C74.9385 69.7671 74.03 70.3109 73.1206 70.8545C71.4814 71.8311 69.8343 72.7928 68.1802 73.7439C66.9739 74.4377 65.7705 75.1361 64.5688 75.8379C64.4065 75.9323 64.2441 76.0268 64.0769 76.1241C63.3232 76.5629 62.5717 77.0044 61.8253 77.4554C61.6908 77.5358 61.5562 77.6161 61.4177 77.6988C61.1751 77.8437 60.9335 77.9902 60.6932 78.1388C58.7074 79.3176 56.411 79.9161 54.1945 80.5009C53.9417 80.5685 53.689 80.6362 53.4364 80.7039C52.9122 80.8443 52.3877 80.9837 51.8631 81.1224C51.196 81.2988 50.5296 81.4773 49.8632 81.6563C49.3435 81.7958 48.8234 81.9344 48.3033 82.0727C48.0576 82.1381 47.812 82.2037 47.5664 82.2697C43.3605 83.3966 39.727 83.2385 35.4373 82.5881C34.8691 82.5025 34.3005 82.4198 33.732 82.3368C32.6517 82.1786 31.5718 82.0179 30.4921 81.8563C29.2929 81.6769 28.0932 81.5002 26.8936 81.3237C26.1871 81.2198 25.4807 81.1155 24.7743 81.0114C24.6586 80.9943 24.543 80.9773 24.4238 80.9597C24.3083 80.9427 24.1929 80.9256 24.074 80.9081C23.7241 80.8565 23.3743 80.805 23.0245 80.7535C22.3369 80.6522 21.6493 80.5506 20.9618 80.4489C20.8508 80.4325 20.7399 80.4161 20.6256 80.3992C19.1266 80.1772 17.6291 79.9465 16.1324 79.7097C12.3118 79.1103 8.62784 78.7449 4.75781 78.7603C3.18773 78.7569 1.61766 78.7535 0 78.75C0 73.5525 0 68.355 0 63C4.83984 63.0205 4.83984 63.0205 6.36095 63.0398C6.76139 63.0379 7.16182 63.0353 7.56226 63.032C7.76809 63.0369 7.97392 63.0417 8.18598 63.0467C9.31335 63.0366 9.31335 63.0366 10.2563 62.4821C10.5897 62.0674 10.8734 61.6454 11.1562 61.1953C13.0912 58.8022 15.4586 57.436 18.5391 57.0938C18.5391 55.5778 18.5391 54.0619 18.5391 52.5ZM26.4141 70.3828C26.5889 71.6065 26.6097 71.7269 27.3984 72.5156C27.8524 72.7877 28.1956 72.8863 28.7223 72.8987C28.8538 72.9024 28.9853 72.9062 29.1208 72.9101C29.2636 72.9125 29.4064 72.9149 29.5536 72.9175C29.7052 72.9212 29.8569 72.9249 30.0131 72.9288C31.6009 72.9651 33.1891 72.9807 34.7772 72.9947C35.5292 73.002 36.2806 73.0156 37.0323 73.0351C37.9427 73.0585 38.8525 73.0704 39.7631 73.0744C40.1084 73.0778 40.4537 73.0852 40.7987 73.0966C42.453 73.1488 43.7742 73.19 45.0396 72.0135C45.8322 71.2756 45.8322 71.2756 46.2656 70.3828C39.7146 70.3828 33.1636 70.3828 26.4141 70.3828Z" fill="#1B4583"/>
<path d="M26.25 52.5C27.9825 52.5 29.715 52.5 31.5 52.5C31.5 54.2325 31.5 55.965 31.5 57.75C29.7675 57.75 28.035 57.75 26.25 57.75C26.25 56.0175 26.25 54.285 26.25 52.5Z" fill="#1B4583"/>
<path d="M26.25 42C27.9825 42 29.715 42 31.5 42C31.5 43.7325 31.5 45.465 31.5 47.25C29.7675 47.25 28.035 47.25 26.25 47.25C26.25 45.5175 26.25 43.785 26.25 42Z" fill="#1B4583"/>
<path d="M18.375 42C20.1075 42 21.84 42 23.625 42C23.625 43.7325 23.625 45.465 23.625 47.25C21.8925 47.25 20.16 47.25 18.375 47.25C18.375 45.5175 18.375 43.785 18.375 42Z" fill="#1B4583"/>
<path d="M26.25 31.5C27.9825 31.5 29.715 31.5 31.5 31.5C31.5 33.2325 31.5 34.965 31.5 36.75C29.7675 36.75 28.035 36.75 26.25 36.75C26.25 35.0175 26.25 33.285 26.25 31.5Z" fill="#1B4583"/>
<path d="M18.375 31.5C20.1075 31.5 21.84 31.5 23.625 31.5C23.625 33.2325 23.625 34.965 23.625 36.75C21.8925 36.75 20.16 36.75 18.375 36.75C18.375 35.0175 18.375 33.285 18.375 31.5Z" fill="#1B4583"/>
</g>
<defs>
<clipPath id="clip0_71_35">
<rect width="84" height="84" fill="white"/>
</clipPath>
</defs>
</svg>
