<svg width="88" height="88" viewBox="0 0 88 88" fill="none" xmlns="http://www.w3.org/2000/svg">
<path fill-rule="evenodd" clip-rule="evenodd" d="M14.1329 23.1171C12.0685 11.7971 18.3907 4.79011 31.902 5.55684L32.0055 3.33725C32.0182 3.06568 32.1758 2.84001 32.4266 2.73517C32.6772 2.63015 32.9487 2.67604 33.151 2.85737L39.8026 8.82075C40.0014 8.99898 40.0998 9.23376 40.0874 9.50051C40.0748 9.76726 39.9552 9.9919 39.7405 10.1509L32.5632 15.4701C32.3448 15.632 32.0703 15.6523 31.8305 15.5244C31.5906 15.3965 31.4544 15.1573 31.467 14.8857L31.5777 12.5097C22.2672 11.2352 16.4517 14.7702 14.1325 23.117L14.1329 23.1171ZM85.2651 32.4266C85.1601 32.1758 84.9344 32.018 84.663 32.0053L82.4434 31.9018C83.2101 18.3906 76.2031 12.0683 64.8831 14.1327C73.2299 16.4518 76.7648 22.2672 75.4904 31.5779L73.1145 31.4672C72.843 31.4546 72.6037 31.5907 72.4759 31.8305C72.348 32.0704 72.3683 32.3449 72.5302 32.5632L77.8494 39.7405C78.0083 39.9552 78.2328 40.0748 78.4997 40.0872C78.7665 40.0996 79.0011 40.0013 79.1795 39.8024L85.1429 33.1509C85.3244 32.9486 85.3701 32.677 85.2651 32.4264V32.4266ZM56.4222 75.4902L56.5329 73.1144C56.5454 72.8428 56.4093 72.6036 56.1696 72.4757C55.9296 72.3478 55.6551 72.3681 55.4369 72.53L48.2595 77.8492C48.0449 78.0082 47.9252 78.2328 47.9129 78.4996C47.9005 78.7663 47.9988 79.0011 48.1977 79.1793L54.8492 85.1427C55.0515 85.3242 55.3231 85.3699 55.5737 85.2649C55.8244 85.1599 55.9822 84.9342 55.9948 84.6628L56.0982 82.4432C69.6095 83.21 75.9317 76.203 73.8674 64.8829C71.5482 73.2297 65.7327 76.7646 56.4222 75.4902ZM12.51 56.4222L14.8859 56.5329C15.1573 56.5454 15.3967 56.4093 15.5246 56.1696C15.6524 55.9296 15.6322 55.6551 15.4702 55.4369L10.1511 48.2597C9.99207 48.045 9.76743 47.9254 9.50068 47.913C9.23393 47.9007 8.99915 47.999 8.82092 48.1978L2.85737 54.8494C2.67604 55.0517 2.63015 55.3232 2.73517 55.5738C2.84018 55.8246 3.06586 55.9824 3.33725 55.9951L5.55684 56.0986C4.79028 69.6098 11.7971 75.9321 23.1173 73.8677C14.7705 71.5486 11.2356 65.7332 12.51 56.4226V56.4222ZM64.2735 63.4399V62.4217C64.2735 61.7887 63.7556 61.2708 63.1226 61.2708H23.4258C22.7928 61.2708 22.2749 61.7887 22.2749 62.4217V63.4399C22.2749 64.0727 22.7928 64.5907 23.4258 64.5907H63.1226C63.7556 64.5907 64.2735 64.0729 64.2735 63.4399ZM21.473 38.7574L41.874 27.5797C42.7724 27.0875 43.7762 27.0875 44.6746 27.5797L50.1443 30.5765V35.5258C50.1443 37.3987 51.6702 38.9245 53.5431 38.9245H57.7945C59.3128 38.9245 60.6027 37.9219 61.0371 36.5445L65.0756 38.7572C65.528 39.0051 65.7475 39.5111 65.6196 40.0107C65.4917 40.5104 65.056 40.8486 64.54 40.8486H59.1308V59.208H39.4659V46.5317H31.5538V59.208H27.4178V40.8486H22.0084C21.4926 40.8486 21.0569 40.5104 20.9288 40.0107C20.8009 39.5111 21.0204 39.0049 21.4728 38.7572L21.473 38.7574ZM45.0436 42.859V47.3079H54.9948V42.859H45.0436ZM40.3945 34.8914C40.3945 36.4777 41.6882 37.7714 43.2745 37.7714C44.8607 37.7714 46.1544 36.4777 46.1544 34.8914C46.1544 33.3052 44.8607 32.0115 43.2745 32.0115C41.6882 32.0115 40.3945 33.3052 40.3945 34.8914ZM49.6488 21.7251H52.207V35.526C52.207 36.2606 52.8087 36.8623 53.5433 36.8623H57.7946C58.5292 36.8623 59.131 36.2608 59.131 35.526V21.7249H61.6892C62.0006 21.7249 62.2668 21.552 62.3935 21.2676C62.5202 20.9831 62.4707 20.6696 62.2624 20.4381L56.2423 13.7474C56.0907 13.5789 55.8958 13.492 55.6692 13.492C55.4427 13.492 55.2476 13.5788 55.096 13.7474L49.0759 20.4381C48.8676 20.6696 48.8181 20.9831 48.9448 21.2676C49.0715 21.552 49.3377 21.7249 49.649 21.7249L49.6488 21.7251Z" fill="#1B4583"/>
</svg>
