<svg width="61" height="66" viewBox="0 0 61 66" fill="none" xmlns="http://www.w3.org/2000/svg">
<path d="M52.6762 53.4842C53.1548 52.4413 53.4272 51.2528 53.4272 49.9917V39.7883H49.9993V29.9273H46.4533V38.6276L43.7539 29.6614L40.4057 31.0147L43.047 39.7883H40.5432V49.9917C40.5432 51.2528 40.8155 52.4413 41.2941 53.4842H24.5268C23.7447 53.4842 23.1084 52.7469 23.1084 51.8406V47.321H33.2147V21.4358H25.5739L29.4685 14.9176L24.7091 4.99108H28.495V0.882324H5.79685V4.99108H9.58273L4.82334 14.9176L8.71796 21.4358H1.53662V47.321H11.6429V51.8406C11.6429 52.7469 11.0066 53.4842 10.2244 53.4842H0V65.8104H60.5192V53.4842H52.6762ZM44.0892 43.897H49.8811V49.9917C49.8811 51.8419 48.5821 53.3472 46.9852 53.3472C45.3883 53.3472 44.0892 51.8419 44.0892 49.9917V43.897ZM13.6393 4.99095H20.6527L25.2979 14.6794L18.919 25.3555V13.3527H15.373V25.3555L8.99408 14.6794L13.6393 4.99095ZM5.08267 25.5446H11.1729L17.146 35.5415L23.1191 25.5446H29.6686V43.2123H5.08267V25.5446ZM15.1889 51.8406V47.321H19.5624V51.8406C19.5624 52.4116 19.6355 52.963 19.7699 53.4842H14.9814C15.1157 52.963 15.1889 52.4116 15.1889 51.8406ZM56.9732 61.7017H3.54605V57.5929H56.9732V61.7017Z" fill="#1B4583"/>
</svg>
