<svg width="64" height="64" viewBox="0 0 64 64" fill="none" xmlns="http://www.w3.org/2000/svg">
<path d="M32 57V50C32 49.7348 32.1054 49.4804 32.2929 49.2929C32.4804 49.1054 32.7348 49 33 49H34V40C33.7348 40 33.4804 39.8946 33.2929 39.7071C33.1054 39.5196 33 39.2652 33 39V38H15V39C15 39.2652 14.8946 39.5196 14.7071 39.7071C14.5196 39.8946 14.2652 40 14 40V49H15C15.2652 49 15.5196 49.1054 15.7071 49.2929C15.8946 49.4804 16 49.7348 16 50V57H18V46C18 44.4087 18.6321 42.8826 19.7574 41.7574C20.8826 40.6321 22.4087 40 24 40C25.5913 40 27.1174 40.6321 28.2426 41.7574C29.3679 42.8826 30 44.4087 30 46V57H32Z" fill="#1B4583"/>
<path d="M23.3002 15.425C23.4876 15.2388 23.741 15.1342 24.0052 15.1342C24.2694 15.1342 24.5228 15.2388 24.7102 15.425L43.0832 33.673C43.2395 33.8287 43.4382 33.9349 43.6545 33.9785C43.8708 34.022 44.0951 34.0009 44.2995 33.9179C44.5039 33.8348 44.6793 33.6935 44.8039 33.5114C44.9285 33.3293 44.9968 33.1146 45.0002 32.894C45.0003 32.7489 44.9716 32.6052 44.9156 32.4712C44.8596 32.3373 44.7776 32.2159 44.6742 32.114L24.7092 12.291C24.616 12.1983 24.5054 12.1248 24.3837 12.0749C24.262 12.025 24.1317 11.9995 24.0002 12C23.8687 11.9995 23.7384 12.025 23.6167 12.0749C23.4951 12.1248 23.3845 12.1983 23.2912 12.291L19.9912 15.572L21.5662 17.147L23.3002 15.425Z" fill="#1B4583"/>
<path d="M20 57H23V42.142C22.1439 42.363 21.3851 42.8615 20.8423 43.5595C20.2995 44.2576 20.0033 45.1158 20 46V57Z" fill="#1B4583"/>
<path d="M9 34H13V38H9V34Z" fill="#1B4583"/>
<path d="M32.291 17L45.384 30H52.545L39.453 17H32.291Z" fill="#1B4583"/>
<path d="M42 53H59V57H42V53Z" fill="#1B4583"/>
<path d="M10 40H12V49H10V40Z" fill="#1B4583"/>
<path d="M39.8649 15C40.1274 15.0014 40.3788 15.1059 40.5649 15.291L42.4339 17.147L44.0089 15.572L40.7089 12.291C40.6156 12.1983 40.505 12.1248 40.3834 12.0749C40.2617 12.025 40.1314 11.9995 39.9999 12H27.2549L30.2759 15H39.8649Z" fill="#1B4583"/>
<path d="M59 35.861C58.5002 35.7199 58.0439 35.4554 57.673 35.092L54.56 32H46.854C46.9464 32.2892 46.9956 32.5904 47 32.894C46.9966 33.5097 46.8114 34.1106 46.4677 34.6214C46.1239 35.1322 45.637 35.53 45.0679 35.765C44.4989 36 43.8731 36.0617 43.2691 35.9423C42.6651 35.823 42.1098 35.5278 41.673 35.094L41 34.423V39C41 39.2652 40.8946 39.5196 40.7071 39.7071C40.5196 39.8946 40.2652 40 40 40V49H41C41.2652 49 41.5196 49.1054 41.7071 49.2929C41.8946 49.4804 42 49.7348 42 50V51H43V38C43 37.7348 43.1054 37.4804 43.2929 37.2929C43.4804 37.1054 43.7348 37 44 37H56C56.2652 37 56.5196 37.1054 56.7071 37.2929C56.8946 37.4804 57 37.7348 57 38V51H59V35.861Z" fill="#1B4583"/>
<path d="M51 39H55V51H51V39Z" fill="#1B4583"/>
<path d="M45 39H49V51H45V39Z" fill="#1B4583"/>
<path d="M25 57H28V46C27.9967 45.1158 27.7005 44.2576 27.1577 43.5595C26.6149 42.8615 25.8561 42.363 25 42.142V57Z" fill="#1B4583"/>
<path d="M4.121 34C4.26929 34.0013 4.41637 33.9732 4.5537 33.9172C4.69103 33.8612 4.81588 33.7786 4.921 33.674L17.131 21.545L15.556 19.97L3.326 32.114C3.22264 32.2159 3.14058 32.3373 3.08461 32.4712C3.02865 32.6051 2.99988 32.7488 3 32.894C3.00238 33.1892 3.12173 33.4714 3.33187 33.6787C3.54201 33.886 3.8258 34.0016 4.121 34Z" fill="#1B4583"/>
<path d="M11 13C11.2652 13.0001 11.5195 13.1055 11.707 13.293L18.55 20.136L20.142 18.556L13.293 11.707C13.1055 11.5195 13.0001 11.2652 13 11V6.414L9.586 3H7.414L9.707 5.293C9.89447 5.48053 9.99979 5.73484 9.99979 6C9.99979 6.26516 9.89447 6.51947 9.707 6.707L6.707 9.707C6.51947 9.89447 6.26516 9.99979 6 9.99979C5.73484 9.99979 5.48053 9.89447 5.293 9.707L3 7.414V9.586L6.414 13H11Z" fill="#1B4583"/>
<path d="M3 59H61V61H3V59Z" fill="#1B4583"/>
<path d="M34 51H40V57H34V51Z" fill="#1B4583"/>
<path d="M8 51H14V57H8V51Z" fill="#1B4583"/>
<path d="M58.7069 9.707C58.5194 9.89447 58.2651 9.99979 57.9999 9.99979C57.7347 9.99979 57.4804 9.89447 57.2929 9.707L54.2929 6.707C54.1054 6.51947 54.0001 6.26516 54.0001 6C54.0001 5.73484 54.1054 5.48053 54.2929 5.293L56.5859 3H54.4139L50.9999 6.414V11C50.9999 11.2652 50.8945 11.5195 50.7069 11.707L43.8579 18.556L45.4499 20.136L52.2929 13.293C52.4804 13.1055 52.7347 13.0001 52.9999 13H57.5859L60.9999 9.586V7.414L58.7069 9.707Z" fill="#1B4583"/>
<path d="M48.4441 19.97L46.8691 21.545L59.0831 33.673C59.2395 33.8287 59.4382 33.9349 59.6544 33.9784C59.8707 34.022 60.095 34.0009 60.2994 33.9178C60.5038 33.8348 60.6792 33.6934 60.8038 33.5113C60.9285 33.3293 60.9967 33.1146 61.0001 32.894C61.0003 32.7488 60.9715 32.6051 60.9155 32.4712C60.8596 32.3373 60.7775 32.2159 60.6741 32.114L48.4441 19.97Z" fill="#1B4583"/>
<path d="M18.4141 31.9999H29.5861L24.0001 26.4139L18.4141 31.9999Z" fill="#1B4583"/>
<path d="M35 34H39V38H35V34Z" fill="#1B4583"/>
<path d="M23.2929 24.2929C23.4804 24.1055 23.7348 24.0002 23.9999 24.0002C24.2651 24.0002 24.5194 24.1055 24.7069 24.2929L32.4139 31.9999H38.5589L23.9999 17.5439L9.44092 31.9999H15.5859L23.2929 24.2929Z" fill="#1B4583"/>
<path d="M36 40H38V49H36V40Z" fill="#1B4583"/>
<path d="M15 34H33V36H15V34Z" fill="#1B4583"/>
</svg>
