<svg width="60" height="70" viewBox="0 0 60 70" fill="none" xmlns="http://www.w3.org/2000/svg">
<path d="M38.7832 61.6118H42.2983V69.7575H38.7832V61.6118Z" fill="#1B4583"/>
<path d="M21.8662 41.693L24.0631 44.875L40.5401 29.5998L57.0168 44.875L59.2137 41.693L49.3277 32.5302V24.9562H45.8127V29.2724L42.2976 26.0144V14.774H56.3578V6.35681H24.7223V14.774H38.7826V26.0144L21.8662 41.693Z" fill="#1B4583"/>
<path d="M52.8431 65.6847V48.0071L40.5404 36.604L28.2376 48.0071V65.6847H14.1774V24.9562H7.14729V65.6847H0V69.7575C1.12693 69.7575 37.2159 69.7575 35.2678 69.7575V57.539H45.8129V69.7575C47.0174 69.7575 60.41 69.7575 59.9903 69.7575V65.6847H52.8431Z" fill="#1B4583"/>
<path d="M21.2077 6.35683C21.2077 2.98804 18.8425 0.247559 15.9351 0.247559H7.14746V20.8833H21.2077V6.35683Z" fill="#1B4583"/>
<path d="M0 6.35681H3.63223V14.774H0V6.35681Z" fill="#1B4583"/>
</svg>
